<?xml version="1.0" encoding="UTF-8"?>
<svg version="1.1" xmlns="http://www.w3.org/2000/svg" width="605" height="622">
<path d="M0 0 C199.65 0 399.3 0 605 0 C605 205.26 605 410.52 605 622 C405.35 622 205.7 622 0 622 C0 416.74 0 211.48 0 0 Z " fill="#F8F6FC" transform="translate(0,0)"/>
<path d="M0 0 C1.79553062 -0.01485695 1.79553062 -0.01485695 3.62733459 -0.03001404 C5.57714485 -0.02326157 5.57714485 -0.02326157 7.56634521 -0.01637268 C8.95985968 -0.0220799 10.35336948 -0.02904553 11.74687195 -0.03717041 C15.52192874 -0.05508332 19.29675283 -0.0539364 23.07183933 -0.04822803 C26.23006692 -0.04513186 29.3882501 -0.05123374 32.54647136 -0.05726677 C40.00316628 -0.07130576 47.45974663 -0.06975742 54.91644287 -0.05836487 C62.59068417 -0.04689848 70.26457539 -0.06093565 77.93877053 -0.08776134 C84.54199048 -0.10997309 91.145101 -0.11654302 97.74835563 -0.11068493 C101.68565739 -0.10732547 105.62273508 -0.10966203 109.56000519 -0.12693596 C113.26691767 -0.14248947 116.97331545 -0.1383576 120.68020821 -0.11963081 C122.67495162 -0.11423189 124.6697186 -0.12839703 126.66441345 -0.14332581 C135.10209597 -0.074653 142.56912882 0.895299 149.3192749 6.31736755 C154.5713844 12.97271241 157.55224419 17.81406436 157.2567749 26.51268005 C156.32282818 34.41365461 153.31702471 39.77667569 147.30755615 44.9150238 C139.39043207 49.79207573 132.11501713 49.82818553 123.02459717 49.80760193 C121.62916387 49.81495215 120.23373663 49.82354114 118.83831787 49.83326721 C115.06759204 49.85538972 111.29708533 49.85841865 107.52630353 49.8565197 C104.37036404 49.85639959 101.2144703 49.86498003 98.05854362 49.87329721 C90.60953401 49.89249723 83.16063645 49.89542725 75.71160889 49.88865662 C68.04406164 49.88201532 60.37699539 49.90489123 52.70954567 49.94197035 C46.10969489 49.97272067 39.50999845 49.98402171 32.91007751 49.98013353 C28.97556955 49.97807185 25.04143621 49.98345503 21.10699654 50.00802612 C17.40572583 50.03038009 13.70523476 50.02834494 10.00395966 50.0080986 C8.01021587 50.00309404 6.01645695 50.02264362 4.02281189 50.04310608 C-4.50785601 49.96369096 -10.57926653 48.57374095 -16.92233944 42.67816925 C-22.1231612 37.24956897 -24.1890626 31.38445587 -24.58306885 23.95018005 C-24.36983737 17.25656595 -21.96162879 12.44698678 -17.40338135 7.6025238 C-12.21723829 2.91194553 -7.13267134 0.01672919 0 0 Z " fill="#FE4C61" transform="translate(225.08306884765625,447.61231994628906)"/>
<path d="M0 0 C0.93199219 0.45890625 1.86398437 0.9178125 2.82421875 1.390625 C5.43237304 2.7729104 7.74955107 4.08924147 10 6 C10.4375 9.1875 10.4375 9.1875 10 12 C10.98020375 13.0194119 11.97803008 14.02246356 13 15 C12.74880755 18.64229052 10.66658111 21.81175788 9 25 C8.34 25 7.68 25 7 25 C7.350625 25.66 7.70125 26.32 8.0625 27 C9.37510154 31.20032494 8.97287405 33.69155776 8 38 C6.1875 40 6.1875 40 4 41 C2.68 41 1.36 41 0 41 C-0.20625 41.7425 -0.4125 42.485 -0.625 43.25 C-2.4212007 46.8424014 -4.52117309 48.08309537 -8 50 C-8.99 50 -9.98 50 -11 50 C-9.27716951 53.44566099 -4.77533692 54.21929583 -1.27929688 55.52539062 C3.0968702 57.27493906 5.53249837 58.97888623 8 63 C9.23046875 66.41796875 9.23046875 66.41796875 10.1875 70.1875 C10.35475586 70.84371338 10.52201172 71.49992676 10.69433594 72.17602539 C11.98041337 77.42237419 12.74631836 82.60926525 13 88 C-1.20105406 95.88121325 -17.66469734 99.0791993 -33.7109375 94.9140625 C-38.24256922 93.57450481 -42.76636269 92.11681866 -47 90 C-47.45245369 83.7787617 -46.58498628 78.28360182 -45.1875 72.25 C-45.02217773 71.51724854 -44.85685547 70.78449707 -44.68652344 70.02954102 C-42.41966387 60.67927891 -42.41966387 60.67927891 -38.23828125 57.77734375 C-37.60277344 57.50019531 -36.96726562 57.22304687 -36.3125 56.9375 C-35.61769531 56.62167969 -34.92289062 56.30585938 -34.20703125 55.98046875 C-33.47871094 55.65691406 -32.75039063 55.33335937 -32 55 C-30.49644321 54.25715615 -28.99626082 53.50743221 -27.5 52.75 C-25.7675 51.88375 -25.7675 51.88375 -24 51 C-24.886875 50.62875 -25.77375 50.2575 -26.6875 49.875 C-30 48 -30 48 -32.4375 45 C-35.51708939 41.39462705 -37.65704515 40.67036725 -42 39 C-43.86987216 35.26025568 -43.30641834 30.53209172 -42.5 26.5 C-42.335 26.005 -42.17 25.51 -42 25 C-43.32 24.34 -44.64 23.68 -46 23 C-46 21.68 -46 20.36 -46 19 C-46.99 18.67 -47.98 18.34 -49 18 C-48.42647107 14.12867972 -46.51295648 11.91827204 -44 9 C-44.66 9 -45.32 9 -46 9 C-46 8.01 -46 7.02 -46 6 C-45.154375 5.608125 -44.30875 5.21625 -43.4375 4.8125 C-40.29661399 3.15639647 -37.68111668 1.36676092 -34.90625 -0.81640625 C-24.99836859 -6.96822606 -9.83951121 -5.43100789 0 0 Z " fill="#030303" transform="translate(310,148)"/>
<path d="M0 0 C0.93199219 0.45890625 1.86398437 0.9178125 2.82421875 1.390625 C5.43237304 2.7729104 7.74955107 4.08924147 10 6 C10.4375 9.1875 10.4375 9.1875 10 12 C10.98020375 13.0194119 11.97803008 14.02246356 13 15 C12.74880755 18.64229052 10.66658111 21.81175788 9 25 C8.34 25 7.68 25 7 25 C7.495 29.455 7.495 29.455 8 34 C6 31 6 31 5 28 C2.98491642 27.26676204 2.98491642 27.26676204 1 27 C1 24.36 1 21.72 1 19 C0.34 19 -0.32 19 -1 19 C-1.66 20.65 -2.32 22.3 -3 24 C-3.886875 23.835 -4.77375 23.67 -5.6875 23.5 C-8.53596892 23.07004243 -11.13004802 22.91558965 -14 23 C-14 22.34 -14 21.68 -14 21 C-13.01 21 -12.02 21 -11 21 C-12.32 20.67 -13.64 20.34 -15 20 C-15.495 16.535 -15.495 16.535 -16 13 C-17.32 13 -18.64 13 -20 13 C-20 15.64 -20 18.28 -20 21 C-21.65 20.34 -23.3 19.68 -25 19 C-25 19.66 -25 20.32 -25 21 C-24.01 21.33 -23.02 21.66 -22 22 C-23.43725871 22.16873478 -24.87481838 22.33490737 -26.3125 22.5 C-27.11300781 22.5928125 -27.91351563 22.685625 -28.73828125 22.78125 C-31 23 -31 23 -34 23 C-34.02578125 23.77085937 -34.0515625 24.54171875 -34.078125 25.3359375 C-34.13484375 26.33882812 -34.1915625 27.34171875 -34.25 28.375 C-34.31960938 29.87160156 -34.31960938 29.87160156 -34.390625 31.3984375 C-35 34 -35 34 -37.046875 35.3515625 C-37.69140625 35.56554687 -38.3359375 35.77953125 -39 36 C-40 35 -40 35 -40.0625 32.5 C-40.041875 31.675 -40.02125 30.85 -40 30 C-40 29.67 -40 29.34 -40 29 C-40.25015873 32.41642759 -40.25015873 32.41642759 -40 36 C-39.01 36.66 -38.02 37.32 -37 38 C-37 38.66 -37 39.32 -37 40 C-39.4375 39.625 -39.4375 39.625 -42 39 C-43.86987216 35.26025568 -43.30641834 30.53209172 -42.5 26.5 C-42.335 26.005 -42.17 25.51 -42 25 C-43.32 24.34 -44.64 23.68 -46 23 C-46 21.68 -46 20.36 -46 19 C-46.99 18.67 -47.98 18.34 -49 18 C-48.42647107 14.12867972 -46.51295648 11.91827204 -44 9 C-44.66 9 -45.32 9 -46 9 C-46 8.01 -46 7.02 -46 6 C-45.154375 5.608125 -44.30875 5.21625 -43.4375 4.8125 C-40.29661399 3.15639647 -37.68111668 1.36676092 -34.90625 -0.81640625 C-24.99836859 -6.96822606 -9.83951121 -5.43100789 0 0 Z " fill="#060607" transform="translate(310,148)"/>
<path d="M0 0 C3.125 0.375 3.125 0.375 6 1 C6.33 1.99 6.66 2.98 7 4 C6.34 4 5.68 4 5 4 C5 3.34 5 2.68 5 2 C3.35 2 1.7 2 0 2 C0.33 2.99 0.66 3.98 1 5 C4.50294871 6.71567661 4.50294871 6.71567661 8 8 C8.99 6.68 9.98 5.36 11 4 C12.7015625 4.2784375 12.7015625 4.2784375 14.4375 4.5625 C15.613125 4.706875 16.78875 4.85125 18 5 C18.33 4.67 18.66 4.34 19 4 C21.00135334 4 23.00293753 4.00373407 25.00390625 4.04296875 C27.07378945 4.08879957 27.07378945 4.08879957 29.25 3.3125 C31 3 31 3 33.25 4.4375 C33.8275 4.953125 34.405 5.46875 35 6 C35.33 4.02 35.66 2.04 36 0 C36.66 0 37.32 0 38 0 C38 4.29 38 8.58 38 13 C36.68 13 35.36 13 34 13 C39.28 13 44.56 13 50 13 C50 8.71 50 4.42 50 0 C56 0 56 0 58.3125 1.3125 C60 3 60 3 61 6 C61.556875 5.46375 62.11375 4.9275 62.6875 4.375 C63.8321875 3.694375 63.8321875 3.694375 65 3 C67.5 3.8125 67.5 3.8125 70 5 C71.32 5 72.64 5 74 5 C74 5.99 74 6.98 74 8 C74.66 8 75.32 8 76 8 C76.33 6.68 76.66 5.36 77 4 C77.66 4 78.32 4 79 4 C79.495 5.98 79.495 5.98 80 8 C80.66 8 81.32 8 82 8 C82.33 6.35 82.66 4.7 83 3 C83.99 3.33 84.98 3.66 86 4 C87.37433431 4.04278083 88.75059873 4.04057273 90.125 4 C91.40375 4 92.6825 4 94 4 C95 5 95 5 95.09765625 6.84765625 C95.06510417 8.8984375 95.03255208 10.94921875 95 13 C94.34 13 93.68 13 93 13 C93 10.36 93 7.72 93 5 C91.68 5.33 90.36 5.66 89 6 C88.67 8.31 88.34 10.62 88 13 C90.64 13.33 93.28 13.66 96 14 C96 14.33 96 14.66 96 15 C63.33 15 30.66 15 -3 15 C-2.01 14.34 -1.02 13.68 0 13 C-0.66 12.67 -1.32 12.34 -2 12 C-2 11.34 -2 10.68 -2 10 C0.97 10.495 0.97 10.495 4 11 C4.33 10.01 4.66 9.02 5 8 C4.030625 7.7525 3.06125 7.505 2.0625 7.25 C-1 6 -1 6 -2 4 C-2 2 -2 2 0 0 Z " fill="#D8CAE6" transform="translate(245,599)"/>
<path d="M0 0 C1.67542976 0.28604898 3.34385343 0.61781233 5 1 C5 3.31 5 5.62 5 8 C6.32 7.67 7.64 7.34 9 7 C9 7.66 9 8.32 9 9 C8.01 9 7.02 9 6 9 C6 9.66 6 10.32 6 11 C6.62648438 10.91621094 7.25296875 10.83242187 7.8984375 10.74609375 C8.71570313 10.64425781 9.53296875 10.54242188 10.375 10.4375 C11.18710937 10.33308594 11.99921875 10.22867188 12.8359375 10.12109375 C15 10 15 10 17 11 C17.99 10.01 18.98 9.02 20 8 C20.66869198 27.02057182 20.66869198 27.02057182 15.5703125 32.55078125 C10.60593219 36.93474894 6.23858185 37.41584071 -0.13671875 37.33984375 C-4.64804654 36.80439284 -7.75074829 35.14572163 -11 32 C-14.24923011 26.72000107 -14.36752718 22.00294393 -14 16 C-12.02 15.67 -10.04 15.34 -8 15 C-7.01 16.485 -7.01 16.485 -6 18 C-4.68 18 -3.36 18 -2 18 C-1.01 16.35 -0.02 14.7 1 13 C-2.96 13 -6.92 13 -11 13 C-10.67 12.34 -10.34 11.68 -10 11 C-7.03 11 -4.06 11 -1 11 C-1.01160156 10.28972656 -1.02320313 9.57945312 -1.03515625 8.84765625 C-1.04869141 7.46900391 -1.04869141 7.46900391 -1.0625 6.0625 C-1.07410156 5.14597656 -1.08570313 4.22945312 -1.09765625 3.28515625 C-1 1 -1 1 0 0 Z " fill="#F1EFF5" transform="translate(290,160)"/>
<path d="M0 0 C2.53557578 3.15463416 4.33422552 6.42397968 6.13671875 10.04296875 C6.71357422 11.19861328 7.29042969 12.35425781 7.88476562 13.54492188 C8.18036377 14.14232178 8.47596191 14.73972168 8.78051758 15.35522461 C9.69083709 17.19424155 10.60761534 19.02992875 11.52539062 20.86523438 C16 29.85975288 16 29.85975288 16 31 C5.77 31 -4.46 31 -15 31 C-10.10235517 20.61105643 -5.21009223 10.23629884 0 0 Z " fill="#FE5467" transform="translate(78,142)"/>
<path d="M0 0 C10.23 0 20.46 0 31 0 C26.10235517 10.38894357 21.21009223 20.76370116 16 31 C13.46442422 27.84536584 11.66577448 24.57602032 9.86328125 20.95703125 C9.28642578 19.80138672 8.70957031 18.64574219 8.11523438 17.45507812 C7.81963623 16.85767822 7.52403809 16.26027832 7.21948242 15.64477539 C6.30916291 13.80575845 5.39238466 11.97007125 4.47460938 10.13476562 C0 1.14024712 0 1.14024712 0 0 Z " fill="#FED367" transform="translate(439,60)"/>
<path d="M0 0 C0.99 0 1.98 0 3 0 C3 0.99 3 1.98 3 3 C3.99 3 4.98 3 6 3 C6 3.99 6 4.98 6 6 C5.01 6 4.02 6 3 6 C3 7.32 3 8.64 3 10 C3.99 10 4.98 10 6 10 C6 10.99 6 11.98 6 13 C20.85 13.495 20.85 13.495 36 14 C36 14.33 36 14.66 36 15 C2.01 15 -31.98 15 -67 15 C-67 14.67 -67 14.34 -67 14 C-52.48 14 -37.96 14 -23 14 C-23 12.35 -23 10.7 -23 9 C-22.70250054 7.32656552 -22.37872934 5.65694085 -22 4 C-16.25 2.875 -16.25 2.875 -14 4 C-14 4.66 -14 5.32 -14 6 C-13.278125 5.484375 -12.55625 4.96875 -11.8125 4.4375 C-9 3 -9 3 -6.25 3.25 C-4 4 -4 4 -3 5 C-2.67 4.34 -2.34 3.68 -2 3 C-1.34 3 -0.68 3 0 3 C0 2.01 0 1.02 0 0 Z " fill="#FFC2CD" transform="translate(307,465)"/>
<path d="M0 0 C13.73076923 0 13.73076923 0 18 3 C19.38550197 5.77100394 19.1877467 7.9334706 19 11 C18.01 12.485 18.01 12.485 17 14 C16.34 14 15.68 14 15 14 C15.99 15.6396875 15.99 15.6396875 17 17.3125 C18.58464929 19.93707538 19 20.8256378 19 24 C16.75 24.375 16.75 24.375 14 24 C10 19.02702703 10 19.02702703 10 16 C8.68 16 7.36 16 6 16 C6 18.64 6 21.28 6 24 C4.02 24 2.04 24 0 24 C0 16.08 0 8.16 0 0 Z " fill="#3D395C" transform="translate(161,280)"/>
<path d="M0 0 C6.27 0 12.54 0 19 0 C19 6.27 19 12.54 19 19 C12.73 19 6.46 19 0 19 C0 12.73 0 6.46 0 0 Z " fill="#3D375F" transform="translate(391,389)"/>
<path d="M0 0 C1.39895508 -0.01836914 1.39895508 -0.01836914 2.82617188 -0.03710938 C4.16325195 -0.04000977 4.16325195 -0.04000977 5.52734375 -0.04296875 C6.348396 -0.04707764 7.16944824 -0.05118652 8.01538086 -0.05541992 C10.0625 0.1875 10.0625 0.1875 12.0625 2.1875 C12.328125 4.9375 12.328125 4.9375 12.3125 8.1875 C12.31765625 9.26 12.3228125 10.3325 12.328125 11.4375 C12.0625 14.1875 12.0625 14.1875 10.0625 16.1875 C8.12304688 16.44628906 8.12304688 16.44628906 5.78125 16.453125 C4.93949219 16.45570313 4.09773438 16.45828125 3.23046875 16.4609375 C2.35003906 16.45320313 1.46960938 16.44546875 0.5625 16.4375 C-0.75814453 16.44910156 -0.75814453 16.44910156 -2.10546875 16.4609375 C-2.94722656 16.45835937 -3.78898437 16.45578125 -4.65625 16.453125 C-5.42904297 16.45086914 -6.20183594 16.44861328 -6.99804688 16.44628906 C-8.9375 16.1875 -8.9375 16.1875 -10.9375 14.1875 C-11.16796875 11.18359375 -11.16796875 11.18359375 -11.125 7.625 C-11.11533203 5.85962891 -11.11533203 5.85962891 -11.10546875 4.05859375 C-10.75230278 -1.97808038 -4.87663714 0.00335625 0 0 Z " fill="#383658" transform="translate(344.9375,390.8125)"/>
<path d="M0 0 C1.04285156 0.00386719 2.08570313 0.00773437 3.16015625 0.01171875 C5.9375 0.3125 5.9375 0.3125 8.9375 2.3125 C9.21418225 4.90676798 9.31045242 7.22513646 9.25 9.8125 C9.25483398 10.84697266 9.25483398 10.84697266 9.25976562 11.90234375 C9.20462592 17.04537408 9.20462592 17.04537408 6.9375 19.3125 C3.78515625 19.61328125 3.78515625 19.61328125 0 19.625 C-1.24652344 19.64175781 -2.49304688 19.65851563 -3.77734375 19.67578125 C-7.0625 19.3125 -7.0625 19.3125 -8.9765625 18.19921875 C-10.59348186 15.38996677 -10.49637673 13.02996731 -10.5 9.8125 C-10.51933594 8.6678125 -10.53867188 7.523125 -10.55859375 6.34375 C-10.0625 3.3125 -10.0625 3.3125 -8.4140625 1.42578125 C-5.45272201 0.02381773 -3.26865191 -0.05265486 0 0 Z " fill="#E3E5E8" transform="translate(183.0625,388.6875)"/>
<path d="M0 0 C0.99 0.33 1.98 0.66 3 1 C2.97679687 1.80824219 2.95359375 2.61648438 2.9296875 3.44921875 C2.91164063 4.51785156 2.89359375 5.58648437 2.875 6.6875 C2.84019531 8.27111328 2.84019531 8.27111328 2.8046875 9.88671875 C3.00305231 13.04865383 3.56868048 15.18829759 5 18 C8.36738447 19.62133326 12.34352118 19.256595 16 19 C21.06842268 16.99620499 22.62720728 13.65770423 25 9 C26.32 9.33 27.64 9.66 29 10 C28.96519531 10.80824219 28.93039062 11.61648438 28.89453125 12.44921875 C28.86746094 13.51785156 28.84039063 14.58648437 28.8125 15.6875 C28.77769531 16.74324219 28.74289062 17.79898437 28.70703125 18.88671875 C29.03676187 22.39065615 29.91415288 24.19698511 32 27 C35.21685579 28.60842789 38.5111009 28.46778535 42 28 C46.57577239 25.66894614 48.46531056 23.3451819 51 19 C51.99 19 52.98 19 54 19 C52.76803837 25.31380335 48.90950098 28.28718988 44 32 C40.51096194 33.74451903 36.80658999 33.57578672 33 33 C29.23850216 31.02026429 26.35471801 28.06415402 25 24 C24.61709538 22.00889599 24.27395385 20.00899487 24 18 C23.2575 18.61875 22.515 19.2375 21.75 19.875 C17.92335204 22.83195524 15.45990123 24.40123722 10.5625 23.875 C6.3698852 23.28886142 3.96302536 22.14260266 1 19 C-1.40353894 15.36947965 -1.23622897 12.0873596 -1.1875 7.8125 C-1.18105469 6.56082031 -1.17460938 5.30914062 -1.16796875 4.01953125 C-1 1 -1 1 0 0 Z " fill="#53D9BB" transform="translate(516,266)"/>
<path d="M0 0 C1.65 0 3.3 0 5 0 C5.66 2.31 6.32 4.62 7 7 C7.37511719 6.4946875 7.75023437 5.989375 8.13671875 5.46875 C12.36878216 0.09605489 12.36878216 0.09605489 15.875 -0.4375 C16.57625 -0.293125 17.2775 -0.14875 18 0 C18 4.1557851 16.02802714 5.33213575 13.21484375 8.18359375 C11.7944538 9.90928643 11.7944538 9.90928643 12.125 11.96484375 C13.14782785 14.34383174 14.440648 16.10822896 16.0625 18.125 C19 21.78823529 19 21.78823529 19 24 C16.375 24.4375 16.375 24.4375 13 24 C10.66877878 21.9050512 8.82671379 19.53926173 7 17 C6.67 19.31 6.34 21.62 6 24 C4.02 24 2.04 24 0 24 C0 16.08 0 8.16 0 0 Z " fill="#3A3B5F" transform="translate(249,280)"/>
<path d="M0 0 C1.65 0 3.3 0 5 0 C5.66 1.98 6.32 3.96 7 6 C9.10232344 3.1315587 9.10232344 3.1315587 10 0 C11.65 0 13.3 0 15 0 C15.99 2.31 16.98 4.62 18 7 C18.66 4.69 19.32 2.38 20 0 C21.98 0 23.96 0 26 0 C25.35681657 2.4590548 24.71057848 4.91723524 24.0625 7.375 C23.88009766 8.07367188 23.69769531 8.77234375 23.50976562 9.4921875 C22.11328125 14.7734375 22.11328125 14.7734375 21 17 C19.35 17 17.7 17 16 17 C15.01 14.69 14.02 12.38 13 10 C11.45428722 12.31856917 10.20381448 14.50638429 9 17 C7.35 17 5.7 17 4 17 C3.32844651 14.73050898 2.6626037 12.4596039 2 10.1875 C1.443125 8.29064453 1.443125 8.29064453 0.875 6.35546875 C0 3 0 3 0 0 Z " fill="#413C5E" transform="translate(357,287)"/>
<path d="M0 0 C6 0 6 0 8.3125 1.3125 C10 3 10 3 11 6 C11.556875 5.46375 12.11375 4.9275 12.6875 4.375 C13.450625 3.92125 14.21375 3.4675 15 3 C17.625 3.875 17.625 3.875 20 5 C20.66 4.67 21.32 4.34 22 4 C22.66 6.97 23.32 9.94 24 13 C24.66 12.67 25.32 12.34 26 12 C26.65213292 9.97536745 26.65213292 9.97536745 27 8 C27.66 8 28.32 8 29 8 C29.33 9.98 29.66 11.96 30 14 C26.31251691 14.02925502 22.62506408 14.04688418 18.9375 14.0625 C17.89916016 14.07087891 16.86082031 14.07925781 15.79101562 14.08789062 C10.41276931 14.10496442 5.29666789 13.95415152 0 13 C0 8.71 0 4.42 0 0 Z " fill="#E6DDEF" transform="translate(295,599)"/>
<path d="M0 0 C2.6258382 1.78870171 3.34201385 3.11189509 5 6 C5.71773857 10.46592888 5.32766948 12.41019494 3.125 16.375 C1 19 1 19 -1 20 C-3.3329866 20.04022391 -5.66706666 20.04320247 -8 20 C-7.67 18.35 -7.34 16.7 -7 15 C-6.21625 15.04125 -5.4325 15.0825 -4.625 15.125 C-1.83883881 15.28728734 -1.83883881 15.28728734 0 13 C0.41666667 9.5 0.41666667 9.5 0 6 C-2.90585687 3.61201318 -2.90585687 3.61201318 -6.625 4.3125 C-9.82504312 4.64113123 -9.82504312 4.64113123 -11 6 C-11.04080783 7.99958364 -11.04254356 10.00045254 -11 12 C-10.5359375 10.5459375 -10.5359375 10.5459375 -10.0625 9.0625 C-9 6 -9 6 -8 5 C-5.5625 4.8125 -5.5625 4.8125 -3 5 C-1 7 -1 7 -0.75 9.5 C-1 12 -1 12 -3 14 C-3.99 14 -4.98 14 -6 14 C-6 12.02 -6 10.04 -6 8 C-6.33 8 -6.66 8 -7 8 C-7.99 11.63 -8.98 15.26 -10 19 C-14 17 -14 17 -15.25 15.3125 C-16.33706669 11.96071103 -16.42354476 9.50937084 -16 6 C-11.884898 -0.85340408 -7.44614247 -2.06694644 0 0 Z " fill="#453D5E" transform="translate(242,389)"/>
<path d="M0 0 C2.671875 1.5703125 2.671875 1.5703125 5 4 C5.48828125 7.453125 5.48828125 7.453125 5.3125 11.25 C5.24482422 13.14492188 5.24482422 13.14492188 5.17578125 15.078125 C5.11777344 16.04234375 5.05976563 17.0065625 5 18 C2.72942623 18.05398987 0.45848712 18.09278742 -1.8125 18.125 C-3.70935547 18.15980469 -3.70935547 18.15980469 -5.64453125 18.1953125 C-9 18 -9 18 -12 16 C-12.1875 12.875 -12.1875 12.875 -12 10 C-8.14243493 7.84694043 -5.44870215 6.60746746 -1 7 C-1 6.01 -1 5.02 -1 4 C-2.0828125 4.495 -2.0828125 4.495 -3.1875 5 C-6.01697427 6.00603529 -8.02895466 6.16977402 -11 6 C-10.75 4.125 -10.75 4.125 -10 2 C-6.83142999 -0.3470889 -3.84275221 -0.47054109 0 0 Z " fill="#423E5E" transform="translate(349,286)"/>
<path d="M0 0 C1.6875 1.125 1.6875 1.125 2.6875 3.125 C2.75866382 5.49902501 2.77159085 7.87500677 2.75 10.25 C2.74097656 11.53132813 2.73195313 12.81265625 2.72265625 14.1328125 C2.71105469 15.12023437 2.69945312 16.10765625 2.6875 17.125 C0.41725032 17.20597324 -1.85382075 17.26417704 -4.125 17.3125 C-6.02185547 17.36470703 -6.02185547 17.36470703 -7.95703125 17.41796875 C-11.3125 17.125 -11.3125 17.125 -13.26171875 15.76953125 C-14.3125 14.125 -14.3125 14.125 -14.3125 11.625 C-12.97437791 8.27969477 -11.58496581 7.53811024 -8.3125 6.125 C-5.5 5.9375 -5.5 5.9375 -3.3125 6.125 C-3.3125 5.135 -3.3125 4.145 -3.3125 3.125 C-4.3953125 3.62 -4.3953125 3.62 -5.5 4.125 C-8.32947427 5.13103529 -10.34145466 5.29477402 -13.3125 5.125 C-13.0625 3.25 -13.0625 3.25 -12.3125 1.125 C-8.57141466 -1.64617433 -4.25908135 -1.6115443 0 0 Z " fill="#433C5D" transform="translate(398.3125,286.875)"/>
<path d="M0 0 C1.65 0 3.3 0 5 0 C5.33 3.63 5.66 7.26 6 11 C6.53625 10.34 7.0725 9.68 7.625 9 C10 7 10 7 13.25 6.75 C14.1575 6.8325 15.065 6.915 16 7 C14.62845496 9.95409701 13.01136276 12.44008376 11 15 C11.433125 15.48210937 11.86625 15.96421875 12.3125 16.4609375 C12.869375 17.09257812 13.42625 17.72421875 14 18.375 C14.8353125 19.31472656 14.8353125 19.31472656 15.6875 20.2734375 C17 22 17 22 17 24 C14.25 24.3125 14.25 24.3125 11 24 C8.625 21.5 8.625 21.5 7 19 C6.67 20.65 6.34 22.3 6 24 C4.02 24 2.04 24 0 24 C0 16.08 0 8.16 0 0 Z " fill="#41385A" transform="translate(212,280)"/>
<path d="M0 0 C0.99 0.33 1.98 0.66 3 1 C4.37433431 1.04278083 5.75059873 1.04057273 7.125 1 C8.40375 1 9.6825 1 11 1 C12 2 12 2 12.09765625 3.84765625 C12.06510417 5.8984375 12.03255208 7.94921875 12 10 C11.34 10 10.68 10 10 10 C10 7.36 10 4.72 10 2 C8.68 2.33 7.36 2.66 6 3 C5.67 5.31 5.34 7.62 5 10 C7.64 10.33 10.28 10.66 13 11 C13 11.33 13 11.66 13 12 C-19.67 12 -52.34 12 -86 12 C-86 11.67 -86 11.34 -86 11 C-58.61 11 -31.22 11 -3 11 C-3.495 8.03 -3.495 8.03 -4 5 C-4.66 5 -5.32 5 -6 5 C-6.33 6.65 -6.66 8.3 -7 10 C-7.66 10 -8.32 10 -9 10 C-9.99 5.545 -9.99 5.545 -11 1 C-10.01 1.495 -10.01 1.495 -9 2 C-9 2.99 -9 3.98 -9 5 C-8.34 5 -7.68 5 -7 5 C-6.67 3.68 -6.34 2.36 -6 1 C-5.34 1 -4.68 1 -4 1 C-3.505 2.98 -3.505 2.98 -3 5 C-2.34 5 -1.68 5 -1 5 C-0.67 3.35 -0.34 1.7 0 0 Z " fill="#7C4EA6" transform="translate(328,602)"/>
<path d="M0 0 C2.4921642 2.4168197 2.97652182 3.74080088 3.29296875 7.234375 C3.25816406 8.39453125 3.22335937 9.5546875 3.1875 10.75 C3.16042969 11.92046875 3.13335937 13.0909375 3.10546875 14.296875 C3.07066406 15.18890625 3.03585937 16.0809375 3 17 C1.02 17 -0.96 17 -3 17 C-3.33 13.04 -3.66 9.08 -4 5 C-5.65 4.67 -7.3 4.34 -9 4 C-9 8.29 -9 12.58 -9 17 C-10.98 17 -12.96 17 -15 17 C-15 11.39 -15 5.78 -15 0 C-12.69 0 -10.38 0 -8 0 C-5.03475663 -1.48262169 -3.14877613 -0.83538959 0 0 Z " fill="#3A3C61" transform="translate(420,287)"/>
<path d="M0 0 C2.4921642 2.4168197 2.97652182 3.74080088 3.29296875 7.234375 C3.25816406 8.39453125 3.22335937 9.5546875 3.1875 10.75 C3.16042969 11.92046875 3.13335937 13.0909375 3.10546875 14.296875 C3.07066406 15.18890625 3.03585937 16.0809375 3 17 C1.02 17 -0.96 17 -3 17 C-3.33 13.04 -3.66 9.08 -4 5 C-5.65 4.67 -7.3 4.34 -9 4 C-9 8.29 -9 12.58 -9 17 C-10.98 17 -12.96 17 -15 17 C-15 11.39 -15 5.78 -15 0 C-12.69 0 -10.38 0 -8 0 C-5.03475663 -1.48262169 -3.14877613 -0.83538959 0 0 Z " fill="#3A3C61" transform="translate(322,287)"/>
<path d="M0 0 C1.98 0 3.96 0 6 0 C6.33 3.96 6.66 7.92 7 12 C8.32 11.67 9.64 11.34 11 11 C11.33 7.37 11.66 3.74 12 0 C13.65 0 15.3 0 17 0 C17 5.61 17 11.22 17 17 C3.59789909 17.49182022 3.59789909 17.49182022 1.0625 15.40625 C-0.34364354 12.22174845 -0.29155661 9.71855374 -0.1875 6.25 C-0.16042969 5.07953125 -0.13335937 3.9090625 -0.10546875 2.703125 C-0.07066406 1.81109375 -0.03585937 0.9190625 0 0 Z " fill="#3A3759" transform="translate(270,287)"/>
<path d="M0 0 C3.1070888 3.72458594 5.07299892 7.92236476 7.1875 12.25 C9.0746875 16.08625 9.0746875 16.08625 11 20 C4.4 20 -2.2 20 -9 20 C-6.75 13.25 -6.75 13.25 -5.2734375 10.3515625 C-4.9640625 9.73925781 -4.6546875 9.12695312 -4.3359375 8.49609375 C-3.86027344 7.56990234 -3.86027344 7.56990234 -3.375 6.625 C-2.88773437 5.66400391 -2.88773437 5.66400391 -2.390625 4.68359375 C-1.59742593 3.12052499 -0.79922969 1.55999378 0 0 Z " fill="#F9EBF2" transform="translate(78,150)"/>
<path d="M0 0 C0.928125 0.20625 1.85625 0.4125 2.8125 0.625 C3.1425 1.945 3.4725 3.265 3.8125 4.625 C5.4521875 4.068125 5.4521875 4.068125 7.125 3.5 C8.341875 3.21125 9.55875 2.9225 10.8125 2.625 C11.8025 3.285 12.7925 3.945 13.8125 4.625 C14.0625 8.1875 14.0625 8.1875 13.8125 11.625 C12.8125 12.625 12.8125 12.625 10.5 12.8125 C7.7345797 12.6195637 6.17204949 12.02325155 3.8125 10.625 C3.1525 11.285 2.4925 11.945 1.8125 12.625 C-1.1875 12.875 -1.1875 12.875 -4.1875 12.625 C-6.61272207 10.19977793 -6.48379254 9.4529321 -6.5 6.125 C-6.51675781 5.3309375 -6.53351563 4.536875 -6.55078125 3.71875 C-6.37095703 2.68234375 -6.37095703 2.68234375 -6.1875 1.625 C-3.1875 -0.375 -3.1875 -0.375 0 0 Z " fill="#F5F3F5" transform="translate(212.1875,331.375)"/>
<path d="M0 0 C0.66 1.32 1.32 2.64 2 4 C-0.97 3.67 -3.94 3.34 -7 3 C-7 3.99 -7 4.98 -7 6 C-6.36191406 6.13277344 -5.72382813 6.26554687 -5.06640625 6.40234375 C-4.24011719 6.57894531 -3.41382813 6.75554687 -2.5625 6.9375 C-1.73878906 7.11152344 -0.91507813 7.28554688 -0.06640625 7.46484375 C2 8 2 8 3 9 C3.46011353 13.37107858 3.46011353 13.37107858 1.796875 15.64453125 C-0.57585031 17.43439143 -2.05486842 17.36947427 -5 17.3125 C-5.86625 17.30863281 -6.7325 17.30476563 -7.625 17.30078125 C-10 17 -10 17 -13 15 C-13 14.01 -13 13.02 -13 12 C-9.80097361 11.91113816 -7.07322544 12.08941469 -4 13 C-3.67 12.34 -3.34 11.68 -3 11 C-5.01822917 10.54427083 -7.03645833 10.08854167 -9.0546875 9.6328125 C-11 9 -11 9 -13 7 C-13.375 4.5625 -13.375 4.5625 -13 2 C-9.84281885 -2.11806237 -4.53831723 -1.60330512 0 0 Z " fill="#413B5B" transform="translate(206,287)"/>
<path d="M0 0 C6.27 0 12.54 0 19 0 C16.03 6.27 13.06 12.54 10 19 C7.92961117 16.23948155 6.5462683 14.32768156 5.17578125 11.328125 C4.89903564 10.7290332 4.62229004 10.12994141 4.3371582 9.51269531 C3.82995239 8.39266113 3.82995239 8.39266113 3.3125 7.25 C2.219375 4.8575 1.12625 2.465 0 0 Z " fill="#F9F6F9" transform="translate(445,64)"/>
<path d="M0 0 C1.93719378 -0.05406122 3.87481921 -0.09282025 5.8125 -0.125 C6.89144531 -0.14820313 7.97039062 -0.17140625 9.08203125 -0.1953125 C12 0 12 0 15 2 C15.41394695 5.36676852 15.13087567 8.59723255 15 12 C9.39 12 3.78 12 -2 12 C-2 11.34 -2 10.68 -2 10 C-1.34 10 -0.68 10 0 10 C0 6.7 0 3.4 0 0 Z " fill="#564F67" transform="translate(394,396)"/>
<path d="M0 0 C0.99 0 1.98 0 3 0 C4.02028865 1.31787285 5.01971384 2.65210653 6 4 C6.99 4.33 7.98 4.66 9 5 C9 6.32 9 7.64 9 9 C6.525 8.505 6.525 8.505 4 8 C3.97421875 8.67546875 3.9484375 9.3509375 3.921875 10.046875 C3.46509317 17.23080745 3.46509317 17.23080745 1.375 20.6875 C-2.08667823 22.60053271 -4.2654216 22.03738289 -8 21 C-10.46324069 17.30513897 -10.38991688 15.36706908 -10 11 C-8.75 9.0625 -8.75 9.0625 -7 8 C-5.68 8 -4.36 8 -3 8 C-3 9.32 -3 10.64 -3 12 C-3.99 12.33 -4.98 12.66 -6 13 C-6.73323796 15.01508358 -6.73323796 15.01508358 -7 17 C-5.33388095 17.042721 -3.66617115 17.04063832 -2 17 C0.05922402 14.94077598 -0.58572421 10.78291876 -0.4375 7.9375 C-0.39431641 7.17888672 -0.35113281 6.42027344 -0.30664062 5.63867188 C-0.20026367 3.75934562 -0.09960066 1.87969756 0 0 Z " fill="#3E3B5C" transform="translate(291,388)"/>
<path d="M0 0 C4.4622304 2.27168093 5.7328791 3.46575821 8 8 C-0.25 8 -8.5 8 -17 8 C-10.61981473 0.55645052 -9.10601885 -1.11720904 0 0 Z " fill="#FE5D70" transform="translate(211,614)"/>
<path d="M0 0 C4.41520623 2.28936619 5.74524574 3.49049148 8 8 C0.08 8 -7.84 8 -16 8 C-11.92137637 1.20229396 -8.09451164 -1.44148837 0 0 Z " fill="#FE576A" transform="translate(238,614)"/>
<path d="M0 0 C1.32 0.33 2.64 0.66 4 1 C4 1.99 4 2.98 4 4 C-0.455 4.495 -0.455 4.495 -5 5 C-1.37 5.33 2.26 5.66 6 6 C5.34 7.65 4.68 9.3 4 11 C1.375 11.8125 1.375 11.8125 -1 12 C-1.66 10.68 -2.32 9.36 -3 8 C-4.98 8.33 -6.96 8.66 -9 9 C-8.83242188 9.98742187 -8.66484375 10.97484375 -8.4921875 11.9921875 C-8.28851563 13.27351562 -8.08484375 14.55484375 -7.875 15.875 C-7.66617187 17.15117187 -7.45734375 18.42734375 -7.2421875 19.7421875 C-7.16226562 20.81726563 -7.08234375 21.89234375 -7 23 C-7.66 23.66 -8.32 24.32 -9 25 C-9.33 24.34 -9.66 23.68 -10 23 C-10.99 22.34 -11.98 21.68 -13 21 C-12.67 20.34 -12.34 19.68 -12 19 C-13.32 18.34 -14.64 17.68 -16 17 C-16.1875 13.625 -16.1875 13.625 -16 10 C-15.01 9.34 -14.02 8.68 -13 8 C-13.33 10.64 -13.66 13.28 -14 16 C-13.01 15.67 -12.02 15.34 -11 15 C-10.67 11.04 -10.34 7.08 -10 3 C-9.01 3.33 -8.02 3.66 -7 4 C-4.64811553 3.40206327 -2.31074405 2.74118205 0 2 C0 1.34 0 0.68 0 0 Z " fill="#AFADB1" transform="translate(285,167)"/>
<path d="M0 0 C1.32 0 2.64 0 4 0 C5.75 2 5.75 2 7 4 C7.6496875 3.01 7.6496875 3.01 8.3125 2 C8.869375 1.34 9.42625 0.68 10 0 C10.99 0 11.98 0 13 0 C13 4.29 13 8.58 13 13 C11.68 13 10.36 13 9 13 C8.67 12.01 8.34 11.02 8 10 C7.01 10 6.02 10 5 10 C4.67 10.99 4.34 11.98 4 13 C2.68 13 1.36 13 0 13 C0 8.71 0 4.42 0 0 Z " fill="#FFEBEE" transform="translate(318,465)"/>
<path d="M0 0 C0.61875 0.268125 1.2375 0.53625 1.875 0.8125 C2.205 1.8025 2.535 2.7925 2.875 3.8125 C3.535 3.8125 4.195 3.8125 4.875 3.8125 C5.205 2.8225 5.535 1.8325 5.875 0.8125 C8.25 0.1875 8.25 0.1875 10.875 -0.1875 C12.875 1.8125 12.875 1.8125 12.875 5.8125 C10.895 5.8125 8.915 5.8125 6.875 5.8125 C7.205 6.4725 7.535 7.1325 7.875 7.8125 C9.525 7.8125 11.175 7.8125 12.875 7.8125 C12.545 8.4725 12.215 9.1325 11.875 9.8125 C8.83113276 9.89476668 6.80324652 9.78858217 3.875 8.8125 C2.1115625 9.0909375 2.1115625 9.0909375 0.3125 9.375 C-0.821875 9.519375 -1.95625 9.66375 -3.125 9.8125 C-5.125 7.8125 -5.125 7.8125 -5.4375 4.8125 C-5.334375 3.8225 -5.23125 2.8325 -5.125 1.8125 C-2.125 -0.1875 -2.125 -0.1875 0 0 Z " fill="#F3F3F4" transform="translate(345.125,334.1875)"/>
<path d="M0 0 C3.125 0.375 3.125 0.375 6 1 C6.33 1.99 6.66 2.98 7 4 C7.99 4 8.98 4 10 4 C10 2.68 10 1.36 10 0 C10.66 0 11.32 0 12 0 C12 0.99 12 1.98 12 3 C12.66 3 13.32 3 14 3 C14 3.66 14 4.32 14 5 C13.34 5 12.68 5 12 5 C12 6.98 12 8.96 12 11 C12.66 11 13.32 11 14 11 C14 11.66 14 12.32 14 13 C11.13275314 12.42655063 10.1385485 12.1385485 8 10 C7.62875 10.495 7.2575 10.99 6.875 11.5 C4.25305607 13.59755514 2.26157528 13.21743835 -1 13 C-1.66 11.68 -2.32 10.36 -3 9 C-2.34 9 -1.68 9 -1 9 C-1 9.66 -1 10.32 -1 11 C0.98 11 2.96 11 5 11 C5 10.01 5 9.02 5 8 C2.03 7.505 2.03 7.505 -1 7 C-1.625 4.625 -1.625 4.625 -2 2 C-1.34 1.34 -0.68 0.68 0 0 Z " fill="#EBEEF7" transform="translate(367,331)"/>
<path d="M0 0 C3.96 0 7.92 0 12 0 C12 1.65 12 3.3 12 5 C10.02 5.33 8.04 5.66 6 6 C5.67 9.63 5.34 13.26 5 17 C3.35 17 1.7 17 0 17 C0 11.39 0 5.78 0 0 Z " fill="#383556" transform="translate(292,287)"/>
<path d="M0 0 C6 0 6 0 9 2 C9.29296875 4.3828125 9.29296875 4.3828125 9.1875 7.125 C9.16042969 8.03507813 9.13335937 8.94515625 9.10546875 9.8828125 C9.07066406 10.58148437 9.03585937 11.28015625 9 12 C6.04335481 13.4783226 3.25770263 13.06032783 0 13 C0 8.71 0 4.42 0 0 Z " fill="#6F3C9C" transform="translate(295,599)"/>
<path d="M0 0 C4 0 4 0 6.11328125 2.08984375 C7.20189453 3.49943359 7.20189453 3.49943359 8.3125 4.9375 C9.09109375 5.93652344 9.8696875 6.93554688 10.671875 7.96484375 C11.82429688 9.46724609 11.82429688 9.46724609 13 11 C13.70640625 11.86753906 14.4128125 12.73507812 15.140625 13.62890625 C15.77484375 14.41136719 16.4090625 15.19382812 17.0625 16 C17.63097656 16.70125 18.19945312 17.4025 18.78515625 18.125 C20 20 20 20 20 23 C16.64488453 22.77106271 15.7640831 21.75423858 13.37890625 19.26953125 C12.43063137 18.1249701 11.49210856 16.97227299 10.5625 15.8125 C10.09779297 15.24724609 9.63308594 14.68199219 9.15429688 14.09960938 C8.22360738 12.96642676 7.29858054 11.82856868 6.37939453 10.68603516 C5.4531444 9.5538788 4.5055883 8.4388518 3.53857422 7.34130859 C0 3.30915375 0 3.30915375 0 0 Z " fill="#7C7CE7" transform="translate(456,527)"/>
<path d="M0 0 C1.98 0 3.96 0 6 0 C6 5.61 6 11.22 6 17 C4.02 17 2.04 17 0 17 C0 11.39 0 5.78 0 0 Z " fill="#4C3E5C" transform="translate(328,287)"/>
<path d="M0 0 C2.33944736 0.28730055 4.6739143 0.61936779 7 1 C7.33 0.67 7.66 0.34 8 0 C9.99958364 -0.04080783 12.00045254 -0.04254356 14 0 C13.01 0.66 12.02 1.32 11 2 C10.26393501 5.56769552 10.26393501 5.56769552 10 9 C9.01 8.67 8.02 8.34 7 8 C5.2365625 8.2784375 5.2365625 8.2784375 3.4375 8.5625 C2.303125 8.706875 1.16875 8.85125 0 9 C-2 7 -2 7 -2.25 4.5 C-2 2 -2 2 0 0 Z " fill="#B9A0D0" transform="translate(256,603)"/>
<path d="M0 0 C1.04285156 0.00386719 2.08570313 0.00773437 3.16015625 0.01171875 C5.9375 0.3125 5.9375 0.3125 8.9375 2.3125 C9.21418225 4.90676798 9.31045242 7.22513646 9.25 9.8125 C9.25483398 10.84697266 9.25483398 10.84697266 9.25976562 11.90234375 C9.20462592 17.04537408 9.20462592 17.04537408 6.9375 19.3125 C3.78515625 19.61328125 3.78515625 19.61328125 0 19.625 C-1.24652344 19.64175781 -2.49304688 19.65851563 -3.77734375 19.67578125 C-7.0625 19.3125 -7.0625 19.3125 -8.9765625 18.19921875 C-10.59348186 15.38996677 -10.49637673 13.02996731 -10.5 9.8125 C-10.51933594 8.6678125 -10.53867188 7.523125 -10.55859375 6.34375 C-10.0625 3.3125 -10.0625 3.3125 -8.4140625 1.42578125 C-5.45272201 0.02381773 -3.26865191 -0.05265486 0 0 Z M-8.0625 4.3125 C-8.42051271 7.13989532 -8.42051271 7.13989532 -8.375 10.3125 C-8.39175781 11.385 -8.40851563 12.4575 -8.42578125 13.5625 C-8.30589844 14.47 -8.18601563 15.3775 -8.0625 16.3125 C-4.82335771 18.47192819 -3.81390267 18.58482978 -0.0625 18.5625 C1.236875 18.57023437 1.236875 18.57023437 2.5625 18.578125 C5.203295 18.46664552 5.203295 18.46664552 7.9375 16.3125 C8.3789518 13.48769193 8.3789518 13.48769193 8.25 10.3125 C8.24419922 8.70375 8.24419922 8.70375 8.23828125 7.0625 C8.21226917 4.16991349 8.21226917 4.16991349 5.9375 2.3125 C3.10879751 1.99258294 3.10879751 1.99258294 -0.0625 2.0625 C-1.135 2.05734375 -2.2075 2.0521875 -3.3125 2.046875 C-6.20612178 2.03222351 -6.20612178 2.03222351 -8.0625 4.3125 Z " fill="#5B4B65" transform="translate(183.0625,388.6875)"/>
<path d="M0 0 C2 2 2 2 2 5 C-0.38564077 4.42415568 -2.66682784 3.77772405 -5 3 C-5 5.31 -5 7.62 -5 10 C-4.401875 9.67 -3.80375 9.34 -3.1875 9 C-1 8 -1 8 2 8 C1.125 11.875 1.125 11.875 0 13 C-3.4375 13.1875 -3.4375 13.1875 -7 13 C-9.42522207 10.57477793 -9.29629254 9.8279321 -9.3125 6.5 C-9.32925781 5.7059375 -9.34601563 4.911875 -9.36328125 4.09375 C-9.18345703 3.05734375 -9.18345703 3.05734375 -9 2 C-5.54754176 -0.30163882 -4.05261287 -0.34490322 0 0 Z " fill="#FFEEF0" transform="translate(250,465)"/>
<path d="M0 0 C2 2 2 2 2.3125 5.4375 C2 9 2 9 0.75 10.9375 C-1 12 -1 12 -5 12 C-5.66 13.32 -6.32 14.64 -7 16 C-7.66 16 -8.32 16 -9 16 C-8.34 12.04 -7.68 8.08 -7 4 C-6.01 4 -5.02 4 -4 4 C-4.33 5.98 -4.66 7.96 -5 10 C-3.68 9.34 -2.36 8.68 -1 8 C-0.957279 6.33388095 -0.95936168 4.66617115 -1 3 C-2.06645115 1.70366379 -2.06645115 1.70366379 -4.5625 1.9375 C-5.366875 1.958125 -6.17125 1.97875 -7 2 C-7.66 4.31 -8.32 6.62 -9 9 C-9.66 8.67 -10.32 8.34 -11 8 C-11.48038431 2.59567654 -11.48038431 2.59567654 -9.4375 0.0625 C-5.97590475 -1.44640049 -3.61452199 -0.8701627 0 0 Z " fill="#E4E6E4" transform="translate(241,393)"/>
<path d="M0 0 C0.66 0 1.32 0 2 0 C2.33 2.64 2.66 5.28 3 8 C3.9590625 8.1546875 3.9590625 8.1546875 4.9375 8.3125 C5.618125 8.539375 6.29875 8.76625 7 9 C7.33 9.99 7.66 10.98 8 12 C8.66 11.67 9.32 11.34 10 11 C9.67 13.64 9.34 16.28 9 19 C8.01 19 7.02 19 6 19 C5.319375 19.185625 4.63875 19.37125 3.9375 19.5625 C2 20 2 20 0 19 C0 12.73 0 6.46 0 0 Z " fill="#232223" transform="translate(309,167)"/>
<path d="M0 0 C1 1 1 1 1.0625 4.5625 C1.041875 5.696875 1.02125 6.83125 1 8 C-1.76250036 9.38125018 -3.94731099 9.19079306 -7 9 C-7.66 8.34 -8.32 7.68 -9 7 C-8.75 3.4375 -8.75 3.4375 -8 0 C-5.11795733 -1.44102133 -3.08226581 -0.65580124 0 0 Z " fill="#FFF8F3" transform="translate(262,469)"/>
<path d="M0 0 C-0.60189573 7.34312796 -0.60189573 7.34312796 -2.25 10.0625 C-4 11 -4 11 -6.5625 10.8125 C-9 10 -9 10 -11 8 C-11.3125 5.5 -11.3125 5.5 -11 3 C-7.4144509 0.60963393 -4.2914923 0 0 0 Z " fill="#5B5980" transform="translate(189,393)"/>
<path d="M0 0 C1.4783226 2.95664519 1.06032783 5.74229737 1 9 C-1.97 9 -4.94 9 -8 9 C-8.95514044 5.17943822 -9.08352672 3.64458987 -8 0 C-5.09660535 -1.45169732 -3.09125158 -0.72348441 0 0 Z " fill="#FFEDE9" transform="translate(293,469)"/>
<path d="M0 0 C1.65 0 3.3 0 5 0 C5 5.61 5 11.22 5 17 C3.35 17 1.7 17 0 17 C0 11.39 0 5.78 0 0 Z " fill="#353257" transform="translate(232,287)"/>
<path d="M0 0 C1.65 0 3.3 0 5 0 C5 5.61 5 11.22 5 17 C3.35 17 1.7 17 0 17 C0 11.39 0 5.78 0 0 Z " fill="#3C3252" transform="translate(184,287)"/>
<path d="M0 0 C3.625 0.25 3.625 0.25 5.5625 1.3125 C7.17979605 4.26168691 6.81130138 6.95867559 6.625 10.25 C5.305 10.25 3.985 10.25 2.625 10.25 C2.625 7.94 2.625 5.63 2.625 3.25 C1.635 3.25 0.645 3.25 -0.375 3.25 C-0.375 5.56 -0.375 7.87 -0.375 10.25 C-1.695 10.25 -3.015 10.25 -4.375 10.25 C-4.40189216 8.77093108 -4.42134621 7.29172517 -4.4375 5.8125 C-4.44910156 4.98878906 -4.46070313 4.16507812 -4.47265625 3.31640625 C-4.30756438 -0.17693773 -3.6050353 0.26703965 0 0 Z " fill="#FFE7EA" transform="translate(268.375,467.75)"/>
<path d="M0 0 C2.64 0 5.28 0 8 0 C8.625 3.375 8.625 3.375 9 7 C8.34 7.66 7.68 8.32 7 9 C5.68 9 4.36 9 3 9 C2.67 9.99 2.34 10.98 2 12 C1.34 12 0.68 12 0 12 C0 8.04 0 4.08 0 0 Z " fill="#807290" transform="translate(244,335)"/>
<path d="M0 0 C0.33 1.65 0.66 3.3 1 5 C-0.98 5 -2.96 5 -5 5 C-5 5.66 -5 6.32 -5 7 C-3.02 6.67 -1.04 6.34 1 6 C0.67 6.99 0.34 7.98 0 9 C-3.375 9.125 -3.375 9.125 -7 9 C-9 7 -9 7 -9.3125 4.5625 C-9 2 -9 2 -7.875 0.125 C-5.07848948 -1.55290631 -3.06309468 -0.74875648 0 0 Z " fill="#FFE0E8" transform="translate(341,469)"/>
<path d="M0 0 C0.66 0 1.32 0 2 0 C2 4.29 2 8.58 2 13 C-0.33294775 13.04241723 -2.66702567 13.04092937 -5 13 C-6 12 -6 12 -6.125 8.5 C-6 5 -6 5 -5 4 C-3.33382885 3.95936168 -1.66611905 3.957279 0 4 C0 2.68 0 1.36 0 0 Z " fill="#756E96" transform="translate(400,331)"/>
<path d="M0 0 C4.455 0.99 4.455 0.99 9 2 C8.979375 2.969375 8.95875 3.93875 8.9375 4.9375 C8.64381501 7.87465895 8.64381501 7.87465895 10 9 C12.67058851 9.14115161 15.32432238 9.04247107 18 9 C17.67 9.66 17.34 10.32 17 11 C11.39 11 5.78 11 0 11 C0 10.67 0 10.34 0 10 C0.969375 9.731875 1.93875 9.46375 2.9375 9.1875 C3.948125 8.795625 4.95875 8.40375 6 8 C6.33 7.01 6.66 6.02 7 5 C6.401875 5.33 5.80375 5.66 5.1875 6 C3 7 3 7 0 7 C0 4.69 0 2.38 0 0 Z M18 4 C18.33 4 18.66 4 19 4 C19 5.65 19 7.3 19 9 C18.67 9 18.34 9 18 9 C18 7.35 18 5.7 18 4 Z " fill="#FF4E68" transform="translate(245,468)"/>
<path d="M0 0 C2.6875 0.875 2.6875 0.875 5 2 C5.04241723 4.33294775 5.04092937 6.66702567 5 9 C4 10 4 10 1 10.125 C-2 10 -2 10 -3 9 C-3.25 5.5625 -3.25 5.5625 -3 2 C-2.01 1.34 -1.02 0.68 0 0 Z " fill="#7A4CA5" transform="translate(310,602)"/>
<path d="M0 0 C2.6875 0.875 2.6875 0.875 5 2 C5.04241723 4.33294775 5.04092937 6.66702567 5 9 C4 10 4 10 1 10.125 C-2 10 -2 10 -3 9 C-3.25 5.5625 -3.25 5.5625 -3 2 C-2.01 1.34 -1.02 0.68 0 0 Z " fill="#7A4CA5" transform="translate(274,602)"/>
<path d="M0 0 C1.32 0 2.64 0 4 0 C4 0.99 4 1.98 4 3 C4.66 3 5.32 3 6 3 C6 3.99 6 4.98 6 6 C5.34 6 4.68 6 4 6 C4 7.32 4 8.64 4 10 C4.66 10 5.32 10 6 10 C6 10.99 6 11.98 6 13 C4.33388095 13.042721 2.66617115 13.04063832 1 13 C0 12 0 12 -0.0625 8.9375 C-0.041875 7.968125 -0.02125 6.99875 0 6 C-0.66 6 -1.32 6 -2 6 C-2 5.01 -2 4.02 -2 3 C-1.34 3 -0.68 3 0 3 C0 2.01 0 1.02 0 0 Z " fill="#FFE7EB" transform="translate(277,465)"/>
<path d="M0 0 C2.6875 0.875 2.6875 0.875 5 2 C5.04241723 4.33294775 5.04092937 6.66702567 5 9 C4 10 4 10 1.5625 10.1875 C-1 10 -1 10 -3 8 C-3.3125 5 -3.3125 5 -3 2 C-2.01 1.34 -1.02 0.68 0 0 Z " fill="#7D789A" transform="translate(221,334)"/>
<path d="M0 0 C3.69230769 0.69230769 3.69230769 0.69230769 5 2 C5.14115161 4.67058851 5.04247107 7.32432238 5 10 C4.34 10 3.68 10 3 10 C3 7.36 3 4.72 3 2 C2.01 2.33 1.02 2.66 0 3 C-0.33 5.31 -0.66 7.62 -1 10 C-1.66 10 -2.32 10 -3 10 C-3 7.36 -3 4.72 -3 2 C-3.99 2.33 -4.98 2.66 -6 3 C-6.33 5.31 -6.66 7.62 -7 10 C-7.66 10 -8.32 10 -9 10 C-9 7.03 -9 4.06 -9 1 C-7.700625 1.020625 -6.40125 1.04125 -5.0625 1.0625 C-3.70834367 1.08399454 -2.35243917 1.07148199 -1 1 C-0.67 0.67 -0.34 0.34 0 0 Z " fill="#837799" transform="translate(237,334)"/>
<path d="M0 0 C3.69230769 0.69230769 3.69230769 0.69230769 5 2 C5.14115161 4.67058851 5.04247107 7.32432238 5 10 C4.34 10 3.68 10 3 10 C3 7.36 3 4.72 3 2 C2.01 2.33 1.02 2.66 0 3 C-0.33 5.31 -0.66 7.62 -1 10 C-1.66 10 -2.32 10 -3 10 C-3 7.36 -3 4.72 -3 2 C-3.99 2.33 -4.98 2.66 -6 3 C-6.33 5.31 -6.66 7.62 -7 10 C-7.66 10 -8.32 10 -9 10 C-9 7.03 -9 4.06 -9 1 C-7.700625 1.020625 -6.40125 1.04125 -5.0625 1.0625 C-3.70834367 1.08399454 -2.35243917 1.07148199 -1 1 C-0.67 0.67 -0.34 0.34 0 0 Z " fill="#837799" transform="translate(180,334)"/>
<path d="M0 0 C0.763125 0.20625 1.52625 0.4125 2.3125 0.625 C2.6425 1.615 2.9725 2.605 3.3125 3.625 C0.3425 3.13 0.3425 3.13 -2.6875 2.625 C-2.0275 3.945 -1.3675 5.265 -0.6875 6.625 C0.6325 6.295 1.9525 5.965 3.3125 5.625 C2.9825 6.945 2.6525 8.265 2.3125 9.625 C-0.02044775 9.66741723 -2.35452567 9.66592937 -4.6875 9.625 C-5.6875 8.625 -5.6875 8.625 -5.9375 5.1875 C-5.855 4.011875 -5.7725 2.83625 -5.6875 1.625 C-2.6875 -0.375 -2.6875 -0.375 0 0 Z " fill="#FFF0F3" transform="translate(300.6875,468.375)"/>
<path d="M0 0 C0.99 0 1.98 0 3 0 C3 0.99 3 1.98 3 3 C3.99 3 4.98 3 6 3 C6 3.99 6 4.98 6 6 C5.01 6 4.02 6 3 6 C3 7.32 3 8.64 3 10 C3.99 10 4.98 10 6 10 C6 10.99 6 11.98 6 13 C4.33388095 13.042721 2.66617115 13.04063832 1 13 C0 12 0 12 -0.0625 8.9375 C-0.041875 7.968125 -0.02125 6.99875 0 6 C-0.66 6 -1.32 6 -2 6 C-2 5.01 -2 4.02 -2 3 C-1.34 3 -0.68 3 0 3 C0 2.01 0 1.02 0 0 Z " fill="#FFF1F2" transform="translate(307,465)"/>
<path d="M0 0 C2.00720923 0.28674418 4.0085944 0.61866701 6 1 C6.33 1.99 6.66 2.98 7 4 C6.34 4 5.68 4 5 4 C5 3.34 5 2.68 5 2 C3.35 2 1.7 2 0 2 C0.33 2.99 0.66 3.98 1 5 C4.00847418 6.22520264 4.00847418 6.22520264 7 7 C7.042721 8.66611905 7.04063832 10.33382885 7 12 C6 13 6 13 2.4375 13.0625 C1.303125 13.041875 0.16875 13.02125 -1 13 C-1.33 12.01 -1.66 11.02 -2 10 C0.31 10.33 2.62 10.66 5 11 C5 10.01 5 9.02 5 8 C3.824375 7.7834375 3.824375 7.7834375 2.625 7.5625 C0 7 0 7 -2 6 C-1.125 1.125 -1.125 1.125 0 0 Z " fill="#7D7797" transform="translate(296,331)"/>
<path d="M0 0 C3.875 0.875 3.875 0.875 5 2 C5.14115161 4.67058851 5.04247107 7.32432238 5 10 C2.69 10 0.38 10 -2 10 C-2.33 8.68 -2.66 7.36 -3 6 C0 4 0 4 3 4 C3 3.34 3 2.68 3 2 C1.35 2.33 -0.3 2.66 -2 3 C-1.34 2.01 -0.68 1.02 0 0 Z " fill="#978EA5" transform="translate(194,334)"/>
<path d="M0 0 C4.62 0 9.24 0 14 0 C13.67 1.32 13.34 2.64 13 4 C13 3.34 13 2.68 13 2 C11.68 2 10.36 2 9 2 C8.67 3.32 8.34 4.64 8 6 C5.6875 6.25 5.6875 6.25 3 6 C1.02389614 3.95575462 0 2.8823175 0 0 Z " fill="#222222" transform="translate(295,173)"/>
<path d="M0 0 C3.125 0.375 3.125 0.375 6 1 C5.67 1.99 5.34 2.98 5 4 C2.525 3.01 2.525 3.01 0 2 C0.72268235 5.2985139 0.72268235 5.2985139 4.0625 6.6875 C5.031875 7.120625 6.00125 7.55375 7 8 C6.125 11.875 6.125 11.875 5 13 C3.00041636 13.04080783 0.99954746 13.04254356 -1 13 C-1.66 11.68 -2.32 10.36 -3 9 C-2.34 9 -1.68 9 -1 9 C-1 9.66 -1 10.32 -1 11 C0.98 11 2.96 11 5 11 C5 10.01 5 9.02 5 8 C2.03 7.505 2.03 7.505 -1 7 C-1.625 4.625 -1.625 4.625 -2 2 C-1.34 1.34 -0.68 0.68 0 0 Z " fill="#7A7696" transform="translate(367,331)"/>
<path d="M0 0 C2.475 0.99 2.475 0.99 5 2 C5 4.64 5 7.28 5 10 C2.69 10 0.38 10 -2 10 C-2.33 8.68 -2.66 7.36 -3 6 C0 4 0 4 3 4 C3 3.34 3 2.68 3 2 C1.02 2.33 -0.96 2.66 -3 3 C-2.01 2.01 -1.02 1.02 0 0 Z " fill="#8D8EAB" transform="translate(164,334)"/>
<path d="M0 0 C0.928125 0.20625 1.85625 0.4125 2.8125 0.625 C3.1425 1.945 3.4725 3.265 3.8125 4.625 C3.1525 4.625 2.4925 4.625 1.8125 4.625 C1.4825 3.965 1.1525 3.305 0.8125 2.625 C-0.5075 2.625 -1.8275 2.625 -3.1875 2.625 C-3.5175 5.265 -3.8475 7.905 -4.1875 10.625 C-2.2075 10.625 -0.2275 10.625 1.8125 10.625 C1.8125 9.965 1.8125 9.305 1.8125 8.625 C2.4725 8.625 3.1325 8.625 3.8125 8.625 C3.1525 9.945 2.4925 11.265 1.8125 12.625 C-1.0625 12.75 -1.0625 12.75 -4.1875 12.625 C-6.61272207 10.19977793 -6.48379254 9.4529321 -6.5 6.125 C-6.51675781 5.3309375 -6.53351563 4.536875 -6.55078125 3.71875 C-6.37095703 2.68234375 -6.37095703 2.68234375 -6.1875 1.625 C-3.1875 -0.375 -3.1875 -0.375 0 0 Z " fill="#7E789B" transform="translate(212.1875,331.375)"/>
<path d="M0 0 C0.99 0.495 0.99 0.495 2 1 C2 1.99 2 2.98 2 4 C2.66 4 3.32 4 4 4 C4.33 2.68 4.66 1.36 5 0 C5.66 0 6.32 0 7 0 C7.33 1.32 7.66 2.64 8 4 C8.66 4 9.32 4 10 4 C10.33 2.68 10.66 1.36 11 0 C12.25541557 3.76624671 11.37061958 5.37188934 10 9 C9.34 9 8.68 9 8 9 C7.67 7.35 7.34 5.7 7 4 C6.34 4 5.68 4 5 4 C4.67 5.65 4.34 7.3 4 9 C3.34 9 2.68 9 2 9 C1.34 6.03 0.68 3.06 0 0 Z " fill="#7646A2" transform="translate(317,603)"/>
<path d="M0 0 C1.9375 0.8125 1.9375 0.8125 3.9375 2.8125 C3.9375 3.8025 3.9375 4.7925 3.9375 5.8125 C1.6275 5.8125 -0.6825 5.8125 -3.0625 5.8125 C-2.7325 6.4725 -2.4025 7.1325 -2.0625 7.8125 C-0.4125 7.8125 1.2375 7.8125 2.9375 7.8125 C2.6075 8.4725 2.2775 9.1325 1.9375 9.8125 C-0.4375 9.9375 -0.4375 9.9375 -3.0625 9.8125 C-5.0625 7.8125 -5.0625 7.8125 -5.375 5.375 C-5.0625 2.8125 -5.0625 2.8125 -3.8125 0.9375 C-2.0625 -0.1875 -2.0625 -0.1875 0 0 Z " fill="#938DA7" transform="translate(409.0625,334.1875)"/>
<path d="M0 0 C2.6875 0.875 2.6875 0.875 5 2 C5 3.32 5 4.64 5 6 C3.02 6 1.04 6 -1 6 C-0.67 6.66 -0.34 7.32 0 8 C1.32 8 2.64 8 4 8 C4 8.66 4 9.32 4 10 C2.02 10 0.04 10 -2 10 C-3.39431504 7.21136993 -3.25660094 5.07921132 -3 2 C-2.01 1.34 -1.02 0.68 0 0 Z " fill="#8F8CA9" transform="translate(276,334)"/>
<path d="M0 0 C0.598125 0.20625 1.19625 0.4125 1.8125 0.625 C2.1425 2.275 2.4725 3.925 2.8125 5.625 C0.8325 5.625 -1.1475 5.625 -3.1875 5.625 C-2.8575 6.285 -2.5275 6.945 -2.1875 7.625 C-0.5375 7.625 1.1125 7.625 2.8125 7.625 C2.4825 8.285 2.1525 8.945 1.8125 9.625 C-0.5625 9.75 -0.5625 9.75 -3.1875 9.625 C-5.1875 7.625 -5.1875 7.625 -5.5 4.625 C-5.396875 3.635 -5.29375 2.645 -5.1875 1.625 C-2.1875 -0.375 -2.1875 -0.375 0 0 Z " fill="#8F8CA8" transform="translate(355.1875,334.375)"/>
<path d="M0 0 C0.598125 0.20625 1.19625 0.4125 1.8125 0.625 C2.1425 2.275 2.4725 3.925 2.8125 5.625 C0.8325 5.625 -1.1475 5.625 -3.1875 5.625 C-2.8575 6.285 -2.5275 6.945 -2.1875 7.625 C-0.5375 7.625 1.1125 7.625 2.8125 7.625 C2.4825 8.285 2.1525 8.945 1.8125 9.625 C-0.5625 9.75 -0.5625 9.75 -3.1875 9.625 C-5.1875 7.625 -5.1875 7.625 -5.5 4.625 C-5.396875 3.635 -5.29375 2.645 -5.1875 1.625 C-2.1875 -0.375 -2.1875 -0.375 0 0 Z " fill="#8F8CA8" transform="translate(324.1875,334.375)"/>
<path d="M0 0 C0.33 0 0.66 0 1 0 C1.05382106 2.62527189 1.09358313 5.24944713 1.125 7.875 C1.14175781 8.62136719 1.15851563 9.36773437 1.17578125 10.13671875 C1.1933959 12.09194461 1.10320189 14.04742021 1 16 C0.34 16.66 -0.32 17.32 -1 18 C-3.625 17.625 -3.625 17.625 -6 17 C-5.67 15.35 -5.34 13.7 -5 12 C-4.01 12 -3.02 12 -2 12 C-0.85110867 8.06094403 -0.47417305 4.06434042 0 0 Z " fill="#DCD1CE" transform="translate(290,388)"/>
<path d="M0 0 C0 2.97 0 5.94 0 9 C-0.99 9 -1.98 9 -3 9 C-3 6.69 -3 4.38 -3 2 C-3.99 2 -4.98 2 -6 2 C-6 3.98 -6 5.96 -6 8 C-6.66 8 -7.32 8 -8 8 C-8 5.36 -8 2.72 -8 0 C-4.71023192 -1.09658936 -3.28696233 -0.79953138 0 0 Z " fill="#CCD7E8" transform="translate(407,397)"/>
<path d="M0 0 C3.125 0.375 3.125 0.375 6 1 C6.33 1.99 6.66 2.98 7 4 C6.34 4 5.68 4 5 4 C5 3.34 5 2.68 5 2 C3.35 2 1.7 2 0 2 C0.33 2.99 0.66 3.98 1 5 C4.00847418 6.22520264 4.00847418 6.22520264 7 7 C7.042721 8.66611905 7.04063832 10.33382885 7 12 C6 13 6 13 3.0625 13.125 C0 13 0 13 -2 12 C-2 11.34 -2 10.68 -2 10 C0.97 10.495 0.97 10.495 4 11 C4.33 10.01 4.66 9.02 5 8 C4.030625 7.7525 3.06125 7.505 2.0625 7.25 C-1 6 -1 6 -2 4 C-2 2 -2 2 0 0 Z " fill="#6F3D9D" transform="translate(245,599)"/>
<path d="M0 0 C1.66611905 -0.042721 3.33382885 -0.04063832 5 0 C6 1 6 1 6.125 4.5 C6 8 6 8 5 9 C3.33382885 9.04063832 1.66611905 9.042721 0 9 C0 6.03 0 3.06 0 0 Z " fill="#F1ECF7" transform="translate(297,601)"/>
<path d="M0 0 C0.33 0.99 0.66 1.98 1 3 C-2 5 -2 5 -6 5 C-6.2784375 6.11375 -6.2784375 6.11375 -6.5625 7.25 C-8.60912666 11.16528579 -11.0875055 12.04375275 -15 14 C-15 13.01 -15 12.02 -15 11 C-13.33784732 9.66104368 -11.67036393 8.32869858 -10 7 C-8.60644236 5.04148656 -7.25717453 3.04872887 -6 1 C-5.67 1.66 -5.34 2.32 -5 3 C-3.35 2.01 -1.7 1.02 0 0 Z " fill="#141414" transform="translate(316,184)"/>
<path d="M0 0 C0.99 0.01546875 0.99 0.01546875 2 0.03125 C2.66 0.0209375 3.32 0.010625 4 0 C6 0.53125 6 0.53125 10 4.53125 C4.72 4.53125 -0.56 4.53125 -6 4.53125 C-2 0.53125 -2 0.53125 0 0 Z " fill="#F9F2F8" transform="translate(232,617.46875)"/>
<path d="M0 0 C1.65322266 0.01740234 1.65322266 0.01740234 3.33984375 0.03515625 C4.99693359 0.04869141 4.99693359 0.04869141 6.6875 0.0625 C7.54214844 0.07410156 8.39679688 0.08570313 9.27734375 0.09765625 C8.28734375 0.59265625 8.28734375 0.59265625 7.27734375 1.09765625 C7.27734375 1.75765625 7.27734375 2.41765625 7.27734375 3.09765625 C4.63734375 3.75765625 1.99734375 4.41765625 -0.72265625 5.09765625 C-1.05265625 6.41765625 -1.38265625 7.73765625 -1.72265625 9.09765625 C-2.38265625 9.09765625 -3.04265625 9.09765625 -3.72265625 9.09765625 C-3.8203125 2.9453125 -3.8203125 2.9453125 -3.72265625 1.09765625 C-2.72265625 0.09765625 -2.72265625 0.09765625 0 0 Z " fill="#F6F3F4" transform="translate(179.72265625,390.90234375)"/>
<path d="M0 0 C0 2.66666667 0 5.33333333 0 8 C3.27773504 7.24849977 3.27773504 7.24849977 5 4 C5.38885039 5.78871178 5.76069196 7.58112874 6.125 9.375 C6.33382813 10.37273437 6.54265625 11.37046875 6.7578125 12.3984375 C6.83773438 13.25695312 6.91765625 14.11546875 7 15 C6.34 15.66 5.68 16.32 5 17 C4.67 16.34 4.34 15.68 4 15 C3.01 14.34 2.02 13.68 1 13 C1.33 12.34 1.66 11.68 2 11 C0.68 10.34 -0.64 9.68 -2 9 C-2.125 5.625 -2.125 5.625 -2 2 C-1.34 1.34 -0.68 0.68 0 0 Z " fill="#585759" transform="translate(271,175)"/>
<path d="M0 0 C2.5625 0.1875 2.5625 0.1875 4.5625 2.1875 C4.8125 4.6875 4.8125 4.6875 4.5625 7.1875 C3.9025 7.8475 3.2425 8.5075 2.5625 9.1875 C1.5725 9.1875 0.5825 9.1875 -0.4375 9.1875 C-0.4375 7.2075 -0.4375 5.2275 -0.4375 3.1875 C-0.7675 3.1875 -1.0975 3.1875 -1.4375 3.1875 C-1.7675 4.8375 -2.0975 6.4875 -2.4375 8.1875 C-2.7675 8.1875 -3.0975 8.1875 -3.4375 8.1875 C-3.47991723 5.85455225 -3.47842937 3.52047433 -3.4375 1.1875 C-2.4375 0.1875 -2.4375 0.1875 0 0 Z " fill="#474871" transform="translate(236.4375,393.8125)"/>
<path d="M0 0 C2.02734375 0.03125 2.02734375 0.03125 5.96484375 0.53125 C6.95484375 1.85125 7.94484375 3.17125 8.96484375 4.53125 C4.01484375 4.53125 -0.93515625 4.53125 -6.03515625 4.53125 C-2.03515625 0.53125 -2.03515625 0.53125 0 0 Z " fill="#F9F5FB" transform="translate(205.03515625,617.46875)"/>
<path d="M0 0 C1.32 0 2.64 0 4 0 C4.33 2.97 4.66 5.94 5 9 C2.69 9 0.38 9 -2 9 C-1.125 1.125 -1.125 1.125 0 0 Z " fill="#EDE7F5" transform="translate(334,604)"/>
<path d="M0 0 C4.62 0 9.24 0 14 0 C12.515 2.475 12.515 2.475 11 5 C9.35 4.67 7.7 4.34 6 4 C5.67 3.01 5.34 2.02 5 1 C3.35 1.33 1.7 1.66 0 2 C0 1.34 0 0.68 0 0 Z " fill="#040404" transform="translate(277,174)"/>
<path d="M0 0 C2.33294775 -0.04241723 4.66702567 -0.04092937 7 0 C8 1 8 1 8.09765625 2.84765625 C8.04882812 5.92382812 8.04882812 5.92382812 8 9 C7.34 9 6.68 9 6 9 C6 6.36 6 3.72 6 1 C5.01 1.33 4.02 1.66 3 2 C2.67 4.31 2.34 6.62 2 9 C1.34 9 0.68 9 0 9 C0 6.03 0 3.06 0 0 Z " fill="#8A778E" transform="translate(415,335)"/>
<path d="M0 0 C1.98 0 3.96 0 6 0 C6.38218767 1.65614657 6.71395102 3.32457024 7 5 C6 6 6 6 2.9375 6.0625 C1.4834375 6.0315625 1.4834375 6.0315625 0 6 C0 4.02 0 2.04 0 0 Z " fill="#F0EBEA" transform="translate(167,285)"/>
<path d="M0 0 C2.31 0 4.62 0 7 0 C7.66 1.32 8.32 2.64 9 4 C8 5 8 5 4.5625 5.125 C1 5 1 5 -1 4 C-0.67 2.68 -0.34 1.36 0 0 Z " fill="#E6E4E9" transform="translate(289,199)"/>
<path d="M0 0 C0.61875 0.268125 1.2375 0.53625 1.875 0.8125 C2.205 1.8025 2.535 2.7925 2.875 3.8125 C2.215 3.8125 1.555 3.8125 0.875 3.8125 C0.875 3.1525 0.875 2.4925 0.875 1.8125 C-0.115 2.1425 -1.105 2.4725 -2.125 2.8125 C-2.125 4.4625 -2.125 6.1125 -2.125 7.8125 C-0.475 7.4825 1.175 7.1525 2.875 6.8125 C2.545 7.8025 2.215 8.7925 1.875 9.8125 C-0.5 9.9375 -0.5 9.9375 -3.125 9.8125 C-5.125 7.8125 -5.125 7.8125 -5.4375 4.8125 C-5.334375 3.8225 -5.23125 2.8325 -5.125 1.8125 C-2.125 -0.1875 -2.125 -0.1875 0 0 Z " fill="#7E779A" transform="translate(345.125,334.1875)"/>
<path d="M0 0 C2.6875 0.875 2.6875 0.875 5 2 C5 2.66 5 3.32 5 4 C4.34 4 3.68 4 3 4 C3 3.34 3 2.68 3 2 C1.68 2 0.36 2 -1 2 C-0.67 3.98 -0.34 5.96 0 8 C1.65 7.67 3.3 7.34 5 7 C4.67 7.99 4.34 8.98 4 10 C2.00045254 10.04254356 -0.00041636 10.04080783 -2 10 C-3 9 -3 9 -3.25 5.5625 C-3.1675 4.386875 -3.085 3.21125 -3 2 C-2.01 1.34 -1.02 0.68 0 0 Z " fill="#81708F" transform="translate(308,334)"/>
<path d="M0 0 C1.32 0 2.64 0 4 0 C4 0.66 4 1.32 4 2 C4.99 1.67 5.98 1.34 7 1 C7 2.32 7 3.64 7 5 C5.02 5.66 3.04 6.32 1 7 C0 6 0 6 -0.0625 2.9375 C-0.041875 1.968125 -0.02125 0.99875 0 0 Z " fill="#F2F1F6" transform="translate(307,336)"/>
<path d="M0 0 C0.33 0 0.66 0 1 0 C1 1.65 1 3.3 1 5 C0.67 5 0.34 5 0 5 C0 3.35 0 1.7 0 0 Z M-11 1 C-10.67 1.66 -10.34 2.32 -10 3 C-8.23173046 5.17282569 -8.23173046 5.17282569 -6.01953125 5.265625 C-4.01111857 5.25140615 -2.00415878 5.13142025 0 5 C-0.33 5.66 -0.66 6.32 -1 7 C-6.61 7 -12.22 7 -18 7 C-18 6.67 -18 6.34 -18 6 C-16.5459375 5.5978125 -16.5459375 5.5978125 -15.0625 5.1875 C-14.051875 4.795625 -13.04125 4.40375 -12 4 C-11.67 3.01 -11.34 2.02 -11 1 Z " fill="#FF6A70" transform="translate(263,472)"/>
<path d="M0 0 C0.66 0 1.32 0 2 0 C2 0.99 2 1.98 2 3 C2.66 3 3.32 3 4 3 C4 3.66 4 4.32 4 5 C3.34 5 2.68 5 2 5 C2 6.98 2 8.96 2 11 C2.66 11 3.32 11 4 11 C4 11.66 4 12.32 4 13 C2.68 12.67 1.36 12.34 0 12 C0 9.69 0 7.38 0 5 C-0.66 4.67 -1.32 4.34 -2 4 C-1.34 4 -0.68 4 0 4 C0 2.68 0 1.36 0 0 Z " fill="#7E799E" transform="translate(377,331)"/>
<path d="M0 0 C0.66 0 1.32 0 2 0 C2 0.99 2 1.98 2 3 C2.66 3 3.32 3 4 3 C4 3.66 4 4.32 4 5 C3.34 5 2.68 5 2 5 C2 6.98 2 8.96 2 11 C2.66 11 3.32 11 4 11 C4 11.66 4 12.32 4 13 C2.68 12.67 1.36 12.34 0 12 C0 9.69 0 7.38 0 5 C-0.66 4.67 -1.32 4.34 -2 4 C-1.34 4 -0.68 4 0 4 C0 2.68 0 1.36 0 0 Z " fill="#7E799E" transform="translate(267,331)"/>
<path d="M0 0 C0.99 0.33 1.98 0.66 3 1 C3.33 1.99 3.66 2.98 4 4 C4.66 3.67 5.32 3.34 6 3 C5.67 5.64 5.34 8.28 5 11 C4.01 11 3.02 11 2 11 C0.66018514 11.3062434 -0.67511887 11.63451555 -2 12 C-1.67 11.01 -1.34 10.02 -1 9 C-0.01 9 0.98 9 2 9 C1.51515724 4.35413108 1.51515724 4.35413108 0 0 Z " fill="#747376" transform="translate(313,175)"/>
<path d="M0 0 C0 1.98 0 3.96 0 6 C-0.99 6.33 -1.98 6.66 -3 7 C-3 5.35 -3 3.7 -3 2 C-5.51083114 3.25541557 -5.87125446 4.50063488 -7 7 C-6.74438677 4.6568787 -6.40729228 2.32156597 -6 0 C-3.50907189 -1.24546405 -2.58919267 -0.7767578 0 0 Z " fill="#FFAAC1" transform="translate(260,469)"/>
<path d="M0 0 C1.65 0.33 3.3 0.66 5 1 C4.67 2.65 4.34 4.3 4 6 C2.35 5.67 0.7 5.34 -1 5 C-0.67 3.35 -0.34 1.7 0 0 Z " fill="#ECEDEF" transform="translate(181,396)"/>
<path d="M0 0 C0.99 0 1.98 0 3 0 C3 3.3 3 6.6 3 10 C2.01 10 1.02 10 0 10 C0 6.7 0 3.4 0 0 Z " fill="#E4D7CE" transform="translate(394,396)"/>
<path d="M0 0 C2.0625 0.4375 2.0625 0.4375 4 1 C4 2.65 4 4.3 4 6 C3.01 6.33 2.02 6.66 1 7 C0.34 6.67 -0.32 6.34 -1 6 C-1.042721 4.33388095 -1.04063832 2.66617115 -1 1 C-0.67 0.67 -0.34 0.34 0 0 Z " fill="#E5EAF1" transform="translate(396,336)"/>
<path d="M0 0 C2.0625 0.4375 2.0625 0.4375 4 1 C4 2.65 4 4.3 4 6 C3.01 6.33 2.02 6.66 1 7 C0.34 6.67 -0.32 6.34 -1 6 C-1.042721 4.33388095 -1.04063832 2.66617115 -1 1 C-0.67 0.67 -0.34 0.34 0 0 Z " fill="#E7ECEF" transform="translate(247,336)"/>
<path d="M0 0 C1.98 0 3.96 0 6 0 C6 1.65 6 3.3 6 5 C4.02 5 2.04 5 0 5 C0 3.35 0 1.7 0 0 Z " fill="#534763" transform="translate(328,279)"/>
<path d="M0 0 C1.98 0 3.96 0 6 0 C6 1.65 6 3.3 6 5 C5.01 5.495 5.01 5.495 4 6 C4 5.34 4 4.68 4 4 C2.68 4.33 1.36 4.66 0 5 C0 3.35 0 1.7 0 0 Z " fill="#C3C1C6" transform="translate(300,216)"/>
<path d="M0 0 C2.375 0.1875 2.375 0.1875 5 1 C6.3125 3.5625 6.3125 3.5625 7 6 C5.35 6 3.7 6 2 6 C1.34 4.02 0.68 2.04 0 0 Z " fill="#FED56D" transform="translate(596,616)"/>
<path d="M0 0 C0.99 0.495 0.99 0.495 2 1 C2 1.99 2 2.98 2 4 C2.66 4 3.32 4 4 4 C4.33 3.34 4.66 2.68 5 2 C5.66 2.66 6.32 3.32 7 4 C6.34 4 5.68 4 5 4 C4.67 5.65 4.34 7.3 4 9 C3.34 9 2.68 9 2 9 C1.34 6.03 0.68 3.06 0 0 Z " fill="#8358AB" transform="translate(317,603)"/>
<path d="M0 0 C0.103125 0.639375 0.20625 1.27875 0.3125 1.9375 C0.539375 2.618125 0.76625 3.29875 1 4 C1.99 4.33 2.98 4.66 4 5 C3.01 5 2.02 5 1 5 C1.44703986 9.47883696 1.44703986 9.47883696 4 13 C2.68 12.67 1.36 12.34 0 12 C-0.66 9.69 -1.32 7.38 -2 5 C-1.34 4.67 -0.68 4.34 0 4 C0 2.68 0 1.36 0 0 Z " fill="#7C708D" transform="translate(427,331)"/>
<path d="M0 0 C1.32 0.33 2.64 0.66 4 1 C4.33 2.98 4.66 4.96 5 7 C4.01 7.33 3.02 7.66 2 8 C2 7.34 2 6.68 2 6 C1.34 6 0.68 6 0 6 C0 4.02 0 2.04 0 0 Z " fill="#F1ECEC" transform="translate(269,336)"/>
<path d="M0 0 C1.32 0 2.64 0 4 0 C4 1.98 4 3.96 4 6 C2.68 6 1.36 6 0 6 C0 4.02 0 2.04 0 0 Z " fill="#F2EDF8" transform="translate(309,604)"/>
<path d="M0 0 C1.32 0 2.64 0 4 0 C4 1.98 4 3.96 4 6 C2.68 6 1.36 6 0 6 C0 4.02 0 2.04 0 0 Z " fill="#F2EDF8" transform="translate(273,604)"/>
<path d="M0 0 C1.32 0 2.64 0 4 0 C4 1.98 4 3.96 4 6 C2.68 6 1.36 6 0 6 C0 4.02 0 2.04 0 0 Z " fill="#F1F1F6" transform="translate(220,336)"/>
<path d="M0 0 C1.65 0 3.3 0 5 0 C5 1.65 5 3.3 5 5 C3.35 5 1.7 5 0 5 C0 3.35 0 1.7 0 0 Z " fill="#3B395D" transform="translate(232,279)"/>
<path d="M0 0 C1.65 0 3.3 0 5 0 C5 1.65 5 3.3 5 5 C3.35 5 1.7 5 0 5 C0 3.35 0 1.7 0 0 Z " fill="#433857" transform="translate(184,279)"/>
<path d="M0 0 C0.66 0.33 1.32 0.66 2 1 C0.9802693 4.77300358 0.34127338 5.80206144 -3.125 7.8125 C-4.07375 8.204375 -5.0225 8.59625 -6 9 C-6 8.01 -6 7.02 -6 6 C-4.37064759 4.62131719 -2.70250393 3.28725907 -1 2 C-0.67 1.34 -0.34 0.68 0 0 Z " fill="#202021" transform="translate(307,189)"/>
<path d="M0 0 C0.66 0 1.32 0 2 0 C2.103125 1.258125 2.20625 2.51625 2.3125 3.8125 C2.64858808 6.60499657 2.80025876 7.74433121 4.5625 10 C5.036875 10.33 5.51125 10.66 6 11 C4.35 11.66 2.7 12.32 1 13 C0.67 8.71 0.34 4.42 0 0 Z " fill="#333233" transform="translate(309,167)"/>
<path d="M0 0 C1.3410477 0.75733274 2.67269781 1.53132736 4 2.3125 C5.11375 2.95638672 5.11375 2.95638672 6.25 3.61328125 C6.8275 4.07089844 7.405 4.52851563 8 5 C8 5.99 8 6.98 8 8 C4.67689517 6.83242263 2.16638868 5.85051143 0 3 C0 2.01 0 1.02 0 0 Z " fill="#1F1E1F" transform="translate(277,190)"/>
<path d="M0 0 C1.98 0 3.96 0 6 0 C5.01 0.66 4.02 1.32 3 2 C2.26393501 5.56769552 2.26393501 5.56769552 2 9 C1.34 9 0.68 9 0 9 C0 6.03 0 3.06 0 0 Z " fill="#7849A3" transform="translate(264,603)"/>
<path d="M0 0 C0 0.66 0 1.32 0 2 C-0.66 2 -1.32 2 -2 2 C-2 3.65 -2 5.3 -2 7 C-2.66 6.01 -3.32 5.02 -4 4 C-7.06556598 3.26656572 -7.06556598 3.26656572 -10 3 C-7.14414946 0.14414946 -3.95889689 0 0 0 Z " fill="#6A5972" transform="translate(189,393)"/>
<path d="M0 0 C1.65 0 3.3 0 5 0 C4.34 0.66 3.68 1.32 3 2 C2.59952556 4.32275177 2.2602896 6.65739357 2 9 C1.34 9 0.68 9 0 9 C0 6.03 0 3.06 0 0 Z " fill="#817295" transform="translate(283,335)"/>
<path d="M0 0 C3.3 0 6.6 0 10 0 C10 0.66 10 1.32 10 2 C8.35 2 6.7 2 5 2 C5 2.66 5 3.32 5 4 C3.35 3.67 1.7 3.34 0 3 C0 2.01 0 1.02 0 0 Z " fill="#D2D5E2" transform="translate(199,290)"/>
<path d="M0 0 C1.65 0 3.3 0 5 0 C5.33 1.65 5.66 3.3 6 5 C4.02 5 2.04 5 0 5 C0.99 4.67 1.98 4.34 3 4 C2.01 2.68 1.02 1.36 0 0 Z " fill="#FFF8F1" transform="translate(336,469)"/>
<path d="M0 0 C1.98 0.66 3.96 1.32 6 2 C3.94766315 4.2477975 2.99332739 5.0022242 0 6 C0 4.02 0 2.04 0 0 Z " fill="#ECE7E2" transform="translate(343,396)"/>
<path d="M0 0 C1.65 0 3.3 0 5 0 C4.34 0.66 3.68 1.32 3 2 C2.60235737 3.98821313 2.26224651 5.98944339 2 8 C1.34 8 0.68 8 0 8 C0 5.36 0 2.72 0 0 Z " fill="#F7F5FB" transform="translate(399,397)"/>
<path d="M0 0 C1.32 0 2.64 0 4 0 C4.33 1.65 4.66 3.3 5 5 C3.68 5 2.36 5 1 5 C0.67 3.35 0.34 1.7 0 0 Z " fill="#85869A" transform="translate(392,390)"/>
<path d="M0 0 C0.33 0 0.66 0 1 0 C1 1.65 1 3.3 1 5 C-2.01031744 5.93423645 -2.86650268 6.04449911 -6 5 C-6 4.34 -6 3.68 -6 3 C-4.02 3 -2.04 3 0 3 C0 2.01 0 1.02 0 0 Z " fill="#E4ECF5" transform="translate(281,337)"/>
<path d="M0 0 C0.99 0 1.98 0 3 0 C2.67 2.97 2.34 5.94 2 9 C1.34 9 0.68 9 0 9 C0 6.03 0 3.06 0 0 Z " fill="#767DAA" transform="translate(415,335)"/>
<path d="M0 0 C0.268125 0.61875 0.53625 1.2375 0.8125 1.875 C1.95556848 4.2995233 1.95556848 4.2995233 5 6 C5 6.66 5 7.32 5 8 C3.35 7.67 1.7 7.34 0 7 C-1.125 2.25 -1.125 2.25 0 0 Z " fill="#181819" transform="translate(268,180)"/>
<path d="M0 0 C0.66 0 1.32 0 2 0 C2 0.99 2 1.98 2 3 C3.32 3.66 4.64 4.32 6 5 C4.02 5 2.04 5 0 5 C-0.5625 3.0625 -0.5625 3.0625 -1 1 C-0.67 0.67 -0.34 0.34 0 0 Z " fill="#FFF1FA" transform="translate(285,473)"/>
<path d="M0 0 C2.31 0 4.62 0 7 0 C7 0.66 7 1.32 7 2 C5.02 2.99 3.04 3.98 1 5 C0.67 3.35 0.34 1.7 0 0 Z " fill="#FF7877" transform="translate(298,471)"/>
<path d="M0 0 C-0.33 1.32 -0.66 2.64 -1 4 C-2.65 4 -4.3 4 -6 4 C-5.67 3.01 -5.34 2.02 -5 1 C-3 0 -3 0 0 0 Z " fill="#D8E0EC" transform="translate(395,296)"/>
<path d="M0 0 C-0.33 1.32 -0.66 2.64 -1 4 C-2.65 4 -4.3 4 -6 4 C-5.67 3.01 -5.34 2.02 -5 1 C-3 0 -3 0 0 0 Z " fill="#DEE3E9" transform="translate(348,296)"/>
<path d="M0 0 C0.66 0 1.32 0 2 0 C2.33 1.98 2.66 3.96 3 6 C1.68 6 0.36 6 -1 6 C-0.67 4.02 -0.34 2.04 0 0 Z " fill="#EBE5F3" transform="translate(322,607)"/>
<path d="M0 0 C1.65 0 3.3 0 5 0 C5.33 1.32 5.66 2.64 6 4 C3.83125748 3.49396008 2.00032373 3.00016187 0 2 C0 1.34 0 0.68 0 0 Z " fill="#FFF9F9" transform="translate(246,466)"/>
<path d="M0 0 C0.33 0 0.66 0 1 0 C1.33 1.65 1.66 3.3 2 5 C3.65 4.67 5.3 4.34 7 4 C6.67 4.99 6.34 5.98 6 7 C4.02 7 2.04 7 0 7 C0 4.69 0 2.38 0 0 Z " fill="#7681AB" transform="translate(306,337)"/>
<path d="M0 0 C1.98 0.495 1.98 0.495 4 1 C3.34 2.32 2.68 3.64 2 5 C1.01 5 0.02 5 -1 5 C-0.67 3.35 -0.34 1.7 0 0 Z " fill="#7A79E7" transform="translate(251,0)"/>
<path d="M0 0 C1.65 0 3.3 0 5 0 C5 1.65 5 3.3 5 5 C4.01 5 3.02 5 2 5 C1.34 3.35 0.68 1.7 0 0 Z " fill="#FFABB2" transform="translate(285,471)"/>
<path d="M0 0 C1.98 0 3.96 0 6 0 C6 0.99 6 1.98 6 3 C4.35 3 2.7 3 1 3 C0.67 2.01 0.34 1.02 0 0 Z " fill="#EAEAEF" transform="translate(352,340)"/>
</svg>
