<?xml version="1.0" standalone="no"?>
<!DOCTYPE svg PUBLIC "-//W3C//DTD SVG 20010904//EN"
 "http://www.w3.org/TR/2001/REC-SVG-20010904/DTD/svg10.dtd">
<svg version="1.0" xmlns="http://www.w3.org/2000/svg"
 width="32x" height="32px" viewBox="0 0 1280.000000 1280.000000"
 preserveAspectRatio="xMidYMid meet">
<metadata>
Created by potrace 1.16, written by Peter Selinger 2001-2019
</metadata>
<g transform="translate(0.000000,1280.000000) scale(0.100000,-0.100000)"
fill="#000000" stroke="none">
<path d="M5757 9810 c-89 -11 -325 -64 -412 -94 -432 -145 -711 -301 -1021
-570 -102 -89 -353 -223 -572 -307 -84 -33 -104 -55 -104 -117 0 -68 44 -131
132 -189 88 -59 95 -66 81 -92 -29 -54 -217 -274 -287 -337 -110 -97 -132
-122 -160 -179 -28 -58 -30 -96 -9 -155 26 -73 80 -129 162 -167 40 -18 73
-37 73 -41 1 -4 2 -59 4 -122 2 -88 8 -129 25 -175 61 -167 202 -295 327 -295
45 0 56 -4 73 -27 39 -48 37 -68 -12 -161 -83 -159 -116 -291 -124 -499 -12
-287 51 -488 200 -640 28 -29 55 -53 58 -53 4 0 44 -22 89 -49 120 -73 281
-120 416 -121 27 0 58 -6 67 -12 9 -7 43 -68 77 -135 71 -142 132 -223 292
-379 204 -201 394 -308 692 -389 65 -18 123 -39 128 -46 12 -19 3 -88 -14
-105 -7 -7 -58 -31 -113 -54 -103 -43 -274 -115 -565 -238 -91 -39 -188 -79
-215 -90 -28 -11 -88 -36 -135 -57 -47 -20 -157 -66 -245 -101 -178 -73 -234
-104 -317 -176 -153 -132 -292 -402 -403 -784 -25 -85 -106 -411 -131 -529
-22 -102 -82 -389 -99 -470 -8 -38 -30 -146 -50 -240 -20 -93 -40 -192 -45
-220 -26 -142 -51 -298 -75 -460 -14 -99 -30 -201 -34 -227 l-8 -46 126 -60
c550 -264 1125 -446 1726 -546 319 -54 356 -56 1062 -56 599 0 672 2 813 20
631 81 1225 248 1815 510 146 64 437 209 467 232 16 12 17 20 3 108 -8 52 -24
156 -36 230 -26 169 -69 403 -108 585 -16 77 -46 217 -66 310 -20 94 -40 190
-45 215 -5 25 -16 74 -24 110 -8 36 -24 108 -35 160 -135 613 -303 997 -511
1172 -89 75 -126 95 -340 183 -102 41 -205 84 -230 95 -99 42 -197 83 -231 96
-20 7 -79 32 -130 54 -52 23 -116 50 -144 60 -27 10 -88 35 -135 55 -47 20
-137 57 -200 82 -63 25 -123 54 -132 65 -19 21 -25 102 -10 125 4 7 39 22 77
33 333 97 535 216 745 437 145 151 194 221 283 399 38 76 48 84 102 84 19 0
79 9 134 19 166 33 333 121 434 231 126 136 182 313 179 570 -3 257 -66 477
-181 630 -55 72 -51 83 24 91 77 7 122 28 187 86 119 105 168 221 168 402 l0
112 73 33 c110 50 176 139 177 237 0 71 -39 138 -128 217 -154 135 -213 197
-272 283 -89 130 -93 147 -35 175 44 21 111 79 146 127 22 31 29 51 29 87 0
60 -30 89 -125 125 -89 33 -357 164 -444 217 -36 22 -88 61 -116 87 -115 109
-280 226 -462 328 -157 88 -226 120 -349 163 -49 17 -120 42 -159 56 -111 39
-338 91 -480 110 -200 26 -385 9 -570 -50 -44 -14 -89 -26 -101 -26 -11 0 -60
14 -110 31 -49 16 -125 37 -169 45 -86 15 -321 17 -438 4z m654 -1516 c49 -41
73 -40 126 7 45 39 69 37 113 -9 40 -43 64 -112 101 -292 16 -83 20 -130 17
-225 -4 -112 -7 -126 -42 -210 -51 -122 -55 -142 -24 -150 29 -7 99 7 161 34
51 22 177 113 221 160 17 17 33 31 37 31 20 0 55 -206 39 -225 -7 -9 -52 -16
-130 -20 -136 -9 -137 -9 -164 -98 -20 -65 -10 -93 28 -83 12 3 78 10 148 16
120 10 130 10 167 -10 55 -28 88 -25 160 12 60 31 68 32 206 36 166 5 187 -2
204 -65 6 -21 22 -50 36 -65 22 -23 34 -28 76 -28 44 0 54 4 94 41 52 48 122
178 175 323 20 55 41 101 47 103 18 6 92 -184 79 -205 -2 -4 -7 -180 -11 -392
-9 -508 -38 -820 -106 -1135 -51 -234 -124 -429 -209 -559 -62 -95 -261 -301
-352 -363 -179 -124 -373 -199 -613 -239 -125 -21 -599 -30 -785 -15 -301 24
-545 101 -745 234 -73 48 -241 206 -311 292 -80 97 -167 259 -206 380 -61 191
-126 528 -143 735 -3 41 -13 138 -21 215 -20 189 -16 860 4 860 8 0 38 -43 68
-95 30 -52 73 -113 95 -135 35 -36 44 -40 88 -40 61 0 97 29 114 93 15 55 23
57 207 57 136 -1 149 -2 204 -28 66 -31 123 -34 168 -11 26 14 50 15 142 9 61
-4 129 -10 151 -14 79 -14 90 3 59 91 -25 74 -35 79 -181 86 l-128 7 1 75 c2
82 19 160 35 160 6 0 34 -21 63 -46 136 -123 269 -188 370 -182 67 4 71 24 18
87 -96 113 -135 268 -108 424 24 137 101 342 145 386 30 30 63 26 112 -15z
m-1106 -700 c10 -21 34 -65 52 -97 18 -32 31 -63 27 -68 -9 -16 -160 -11 -174
6 -13 15 3 83 38 168 18 45 31 43 57 -9z m2392 -30 c13 -32 24 -77 26 -99 l2
-40 -79 -3 c-81 -3 -108 6 -88 30 5 7 29 50 52 96 23 46 46 82 53 79 6 -2 22
-30 34 -63z m-3163 -749 c3 -9 3 -36 -1 -61 -5 -37 -11 -48 -32 -56 -79 -32
-131 -61 -173 -97 -38 -34 -52 -56 -79 -129 -30 -81 -32 -96 -33 -217 l-1
-130 37 -75 c38 -78 94 -137 167 -174 43 -23 133 -46 175 -46 42 0 53 -13 71
-84 20 -78 19 -95 -7 -101 -29 -7 -165 27 -215 55 -146 80 -194 127 -242 235
-68 155 -62 471 13 630 18 39 42 90 52 113 22 52 80 95 174 128 79 27 86 28
94 9z m4083 -21 c86 -34 126 -72 165 -154 70 -150 80 -192 84 -365 4 -186 -9
-272 -55 -362 -64 -127 -224 -236 -391 -266 -58 -11 -64 -1 -44 79 9 38 22 75
29 82 7 8 43 20 80 28 85 18 175 65 221 117 20 22 50 69 68 106 28 61 31 76
34 186 3 111 1 126 -25 197 -48 131 -124 214 -217 239 -23 6 -44 16 -48 23 -9
13 -10 78 -2 100 8 22 23 20 101 -10z m-4049 -451 c23 -197 25 -272 9 -279
-23 -8 -73 21 -104 63 -24 31 -29 47 -32 114 -2 57 2 90 14 124 21 53 71 101
89 85 7 -5 18 -54 24 -107z m3986 55 c35 -60 45 -161 22 -220 -34 -85 -116
-142 -116 -80 0 32 19 264 26 310 7 47 37 43 68 -10z m-1680 -1988 c3 -8 7
-42 11 -75 12 -101 19 -109 163 -170 59 -25 68 -39 42 -63 -42 -39 -224 -120
-331 -147 -97 -25 -119 -27 -235 -22 -197 7 -371 63 -479 154 -63 52 -58 71
23 99 97 33 119 59 136 164 10 56 14 65 36 71 14 4 161 6 328 5 259 -1 303 -3
306 -16z m564 -1628 c2 -15 8 -22 18 -18 35 13 113 17 132 7 19 -10 22 -8 28
14 6 25 28 34 39 15 3 -5 30 -17 60 -26 31 -10 64 -26 75 -36 18 -17 19 -21 5
-41 -19 -30 -23 -360 -5 -382 21 -25 2 -45 -76 -81 -101 -46 -126 -32 -56 31
37 35 37 35 35 111 -2 78 -15 114 -28 75 -10 -33 -65 -68 -120 -75 -59 -7 -66
-14 -74 -63 -9 -53 -42 -58 -71 -11 -17 26 -20 46 -18 101 4 80 -7 89 -16 15
-11 -94 -8 -106 29 -144 32 -32 47 -74 26 -74 -5 0 -43 16 -85 35 -78 35 -97
55 -77 78 15 19 18 364 2 380 -23 23 -9 38 67 76 87 43 106 45 110 13z"/>
<path d="M5155 6949 c-75 -3 -120 -11 -142 -22 -44 -23 -83 -92 -83 -146 0
-74 60 -161 111 -161 23 0 28 5 34 33 20 101 50 117 219 117 129 0 141 -5 151
-68 22 -129 70 -218 145 -271 146 -102 388 -92 497 21 52 55 76 104 98 201 18
81 31 97 79 97 48 0 95 31 106 69 12 44 -3 78 -48 104 -31 18 -62 20 -485 23
-249 3 -479 6 -512 7 -33 1 -109 -1 -170 -4z"/>
<path d="M7308 6949 c-257 -4 -482 -9 -501 -13 -58 -11 -97 -70 -78 -120 13
-32 66 -66 104 -66 49 0 65 -16 77 -77 30 -144 77 -217 178 -275 55 -31 61
-32 172 -33 97 0 125 4 176 23 110 42 178 131 210 273 9 41 22 80 29 87 15 16
181 28 246 18 63 -10 89 -33 100 -91 8 -44 21 -64 41 -65 3 0 21 12 39 27 98
83 86 238 -22 290 -58 28 -140 30 -771 22z"/>
</g>
</svg>
